<?xml version="1.0" encoding="UTF-8"?>
<svg id="Layer_1" data-name="Layer 1" xmlns="http://www.w3.org/2000/svg" xmlns:xlink="http://www.w3.org/1999/xlink" viewBox="0 0 739 563">
  <defs>
    <style>
      .cls-1 {
        fill: #3a463d;
      }

      .cls-1, .cls-2, .cls-3, .cls-4, .cls-5, .cls-6, .cls-7, .cls-8, .cls-9, .cls-10, .cls-11, .cls-12, .cls-13, .cls-14, .cls-15, .cls-16, .cls-17, .cls-18, .cls-19, .cls-20, .cls-21, .cls-22, .cls-23, .cls-24, .cls-25 {
        stroke-width: 0px;
      }

      .cls-2 {
        fill: url(#linear-gradient-12);
      }

      .cls-3 {
        fill: url(#linear-gradient-17);
      }

      .cls-4 {
        fill: url(#linear-gradient-19);
      }

      .cls-5 {
        fill: url(#linear-gradient);
      }

      .cls-6 {
        fill: url(#linear-gradient-21);
      }

      .cls-7 {
        fill: url(#linear-gradient-6);
      }

      .cls-8 {
        fill: url(#linear-gradient-15);
      }

      .cls-9 {
        fill: url(#linear-gradient-11);
      }

      .cls-10 {
        fill: url(#linear-gradient-5);
      }

      .cls-11 {
        fill: url(#linear-gradient-13);
      }

      .cls-12 {
        fill: url(#linear-gradient-23);
      }

      .cls-13 {
        fill: url(#linear-gradient-16);
      }

      .cls-14 {
        fill: url(#linear-gradient-22);
      }

      .cls-15 {
        fill: url(#linear-gradient-20);
      }

      .cls-16 {
        fill: url(#linear-gradient-14);
      }

      .cls-17 {
        fill: url(#linear-gradient-2);
      }

      .cls-18 {
        fill: url(#linear-gradient-7);
      }

      .cls-19 {
        fill: url(#linear-gradient-3);
      }

      .cls-20 {
        fill: url(#linear-gradient-9);
      }

      .cls-21 {
        fill: url(#linear-gradient-8);
      }

      .cls-22 {
        fill: url(#linear-gradient-24);
      }

      .cls-23 {
        fill: url(#linear-gradient-18);
      }

      .cls-24 {
        fill: url(#linear-gradient-10);
      }

      .cls-25 {
        fill: url(#linear-gradient-4);
      }
    </style>
    <linearGradient id="linear-gradient" x1="-233.55" y1="1156.44" x2="-90.1" y2="510.92" gradientTransform="translate(539.01 1078.61) scale(1 -1)" gradientUnits="userSpaceOnUse">
      <stop offset="0" stop-color="#b89953"/>
      <stop offset=".13" stop-color="#cab57e"/>
      <stop offset=".23" stop-color="#f7edd4"/>
      <stop offset=".37" stop-color="#f2d484"/>
      <stop offset=".45" stop-color="#cbb785"/>
      <stop offset=".54" stop-color="#fff1b6"/>
      <stop offset=".68" stop-color="#c49574"/>
      <stop offset=".77" stop-color="#e8d182"/>
      <stop offset=".84" stop-color="#e3ce75"/>
      <stop offset=".92" stop-color="#c5b18e"/>
      <stop offset="1" stop-color="#f3da99"/>
    </linearGradient>
    <linearGradient id="linear-gradient-2" x1="-252.93" y1="1152.13" x2="-109.48" y2="506.62" xlink:href="#linear-gradient"/>
    <linearGradient id="linear-gradient-3" x1="-267.22" y1="1148.95" x2="-123.77" y2="503.44" xlink:href="#linear-gradient"/>
    <linearGradient id="linear-gradient-4" x1="-250.01" y1="1152.78" x2="-106.56" y2="507.26" xlink:href="#linear-gradient"/>
    <linearGradient id="linear-gradient-5" x1="-260.97" y1="1150.34" x2="-117.52" y2="504.83" xlink:href="#linear-gradient"/>
    <linearGradient id="linear-gradient-6" x1="-265.09" y1="1149.43" x2="-121.64" y2="503.91" xlink:href="#linear-gradient"/>
    <linearGradient id="linear-gradient-7" x1="-255.83" y1="1151.48" x2="-112.38" y2="505.97" xlink:href="#linear-gradient"/>
    <linearGradient id="linear-gradient-8" x1="-252.91" y1="1152.13" x2="-109.46" y2="506.62" xlink:href="#linear-gradient"/>
    <linearGradient id="linear-gradient-9" x1="-244.88" y1="1153.92" x2="-101.43" y2="508.4" xlink:href="#linear-gradient"/>
    <linearGradient id="linear-gradient-10" x1="-240.76" y1="1154.83" x2="-97.31" y2="509.32" xlink:href="#linear-gradient"/>
    <linearGradient id="linear-gradient-11" x1="-238.63" y1="1155.31" x2="-95.18" y2="509.79" xlink:href="#linear-gradient"/>
    <linearGradient id="linear-gradient-12" x1="-252.96" y1="1152.12" x2="-109.51" y2="506.61" xlink:href="#linear-gradient"/>
    <linearGradient id="linear-gradient-13" x1="-233.67" y1="1156.41" x2="-90.22" y2="510.89" xlink:href="#linear-gradient"/>
    <linearGradient id="linear-gradient-14" x1="-234.93" y1="1156.13" x2="-91.48" y2="510.61" xlink:href="#linear-gradient"/>
    <linearGradient id="linear-gradient-15" x1="-622.38" y1="1070.03" x2="-478.93" y2="424.51" xlink:href="#linear-gradient"/>
    <linearGradient id="linear-gradient-16" x1="-539.54" y1="1088.44" x2="-396.09" y2="442.92" xlink:href="#linear-gradient"/>
    <linearGradient id="linear-gradient-17" x1="-469.76" y1="1103.94" x2="-326.31" y2="458.43" xlink:href="#linear-gradient"/>
    <linearGradient id="linear-gradient-18" x1="-416.9" y1="1115.69" x2="-273.45" y2="470.17" xlink:href="#linear-gradient"/>
    <linearGradient id="linear-gradient-19" x1="-365.83" y1="1127.04" x2="-222.38" y2="481.52" xlink:href="#linear-gradient"/>
    <linearGradient id="linear-gradient-20" x1="-262.27" y1="1150.05" x2="-118.82" y2="504.54" xlink:href="#linear-gradient"/>
    <linearGradient id="linear-gradient-21" x1="-196.1" y1="1164.76" x2="-52.65" y2="519.24" xlink:href="#linear-gradient"/>
    <linearGradient id="linear-gradient-22" x1="-117.66" y1="1182.19" x2="25.79" y2="536.67" xlink:href="#linear-gradient"/>
    <linearGradient id="linear-gradient-23" x1="-48.15" y1="1197.63" x2="95.3" y2="552.12" xlink:href="#linear-gradient"/>
    <linearGradient id="linear-gradient-24" x1="28.3" y1="1214.62" x2="171.75" y2="569.11" xlink:href="#linear-gradient"/>
  </defs>
  <path class="cls-1" d="M530.62,111.21c-3.21-5.16-6.68-10.15-10.37-14.97-34.62-45.15-89.21-74.28-150.62-74.28s-116.32,29.3-150.92,74.68c-3.74,4.89-7.23,9.96-10.47,15.21-17.83,28.8-28.1,62.74-28.1,99.07,0,5.37.23,10.7.66,15.95.38,4.61.94,9.16,1.66,13.68.47,3.05,1.02,6.07,1.65,9.08,13.84,66.33,62.57,119.91,126.19,140.81,4.32,1.42,8.72,2.7,13.19,3.8.98.26,1.97.49,2.98.73,1.99.46,3.99.89,6,1.28,4.02.81,8.09,1.48,12.21,2.01,8.16,1.07,16.49,1.62,24.96,1.62,9.07,0,17.98-.64,26.71-1.87,4.25-.59,8.46-1.34,12.61-2.21,1.79-.37,3.56-.76,5.32-1.2,1.23-.29,2.45-.59,3.67-.91,4.47-1.18,8.87-2.49,13.19-3.98,62.93-21.53,110.9-75.15,124.25-141.27.6-2.99,1.14-6.02,1.59-9.06.69-4.5,1.2-9.03,1.56-13.63.39-4.89.58-9.82.58-14.82,0-36.6-10.44-70.77-28.5-99.71h0ZM376.42,43.84c.05.37.08.77.08,1.18,0,.38-.03.77-.08,1.14l-.38-.37-2.95-2.93-.59.86-1.67,2.44h0s-.16.22-.16.22l-.16-.22-.4-.58h0s-1.29-1.88-1.29-1.88l-.58-.83-.85.85-.4.39-2.06,2.05c-.06-.37-.09-.76-.09-1.14,0-.43.03-.85.1-1.26,0-.05.01-.1.02-.14v-.04c0-2.17.92-4.13,2.38-5.49.13-.14.28-.26.43-.38.11-.08.22-.17.32-.25.34-.26.7-.47,1.09-.66.33-.16.68-.31,1.05-.42.14-.05.28-.09.43-.13.16.04.3.08.44.14.35.11.7.25,1.04.41.37.19.74.4,1.08.66.12.07.23.16.34.25.15.12.28.24.42.37h.01c1.46,1.39,2.38,3.33,2.38,5.51v.04c0,.07.02.15.04.23h0ZM374.29,96.69c0,1-.14,1.97-.39,2.9h0s-.18.71-.18.71l-.51,2.06-.59,2.32-.33,1.31-.13.52-1.49,5.91h0l-1.49-5.92-.45-1.82-.59-2.32-.52-2.07-.17-.69c-.26-.93-.4-1.91-.4-2.91,0-1.11.17-2.18.47-3.18-1,1.32-2.31,2.41-3.81,3.15-.74.37-1.53.66-2.36.85-.43.1-.87.18-1.32.23-.02.02-.06.05-.08.07v-.06c-.06-.26-.1-.5-.12-.77-.05-.42-.08-.85-.08-1.28,0-1,.14-1.97.4-2.9v-.02c.1-.27.19-.53.26-.82,0,0,0,0,0-.01.19-.52.41-1,.67-1.47,1.04-1.91,2.63-3.47,4.57-4.47.62-.31,1.27-.58,1.94-.77.64-.2,1.29-.32,1.97-.38.36-.05.73-.06,1.11-.06s.75.01,1.11.06c.68.07,1.35.19,1.98.38.67.19,1.32.45,1.94.77,1.94,1,3.54,2.56,4.58,4.46.26.48.48.97.67,1.49h0c.08.27.17.51.24.77,0,.02.02.05.02.07.27.92.4,1.9.4,2.9,0,.43-.03.85-.08,1.27-.02.26-.07.52-.12.77v.07s-.06-.05-.1-.08c-.45-.05-.89-.13-1.32-.23-.82-.19-1.61-.48-2.35-.85-1.52-.76-2.83-1.85-3.84-3.17.32,1.01.49,2.09.49,3.2ZM552.15,222.36c-.29,4.53-.73,9.02-1.35,13.47-.4,3.02-.89,6-1.46,8.98-12.03,63.88-57.49,116.02-117.58,137.65-4.25,1.54-8.58,2.92-12.98,4.14-2.92.82-5.86,1.55-8.85,2.22-1.2.27-2.42.53-3.63.77-5.8,1.18-11.68,2.08-17.65,2.7-6.26.65-12.61.97-19.03.97-5.79,0-11.51-.26-17.16-.8-6.06-.56-12.02-1.41-17.9-2.55-1.03-.2-2.06-.4-3.09-.63-2.98-.62-5.93-1.33-8.85-2.1-4.4-1.16-8.72-2.48-12.98-3.96-60.8-21.03-107.03-73.18-119.51-137.32-.58-2.97-1.1-5.97-1.52-8.99-.64-4.46-1.11-8.95-1.42-13.51-.28-4.12-.42-8.27-.42-12.46,0-37.46,11.33-72.28,30.76-101.25,3.35-5,6.93-9.81,10.77-14.44.48-.58.96-1.15,1.44-1.73.32-.38.65-.77.97-1.15.96-1.12,1.94-2.23,2.93-3.32.37-.41.76-.83,1.14-1.25.46-.51.92-1.01,1.39-1.52.71-.75,1.41-1.48,2.12-2.21.46-.47.93-.97,1.41-1.44,1.23-1.24,2.47-2.45,3.72-3.63.6-.58,1.2-1.14,1.8-1.7,1.13-1.03,2.27-2.06,3.41-3.08.56-.49,1.12-.98,1.69-1.46.78-.66,1.55-1.33,2.34-1.97.63-.53,1.27-1.05,1.91-1.57.58-.47,1.15-.93,1.74-1.39,2.69-2.13,5.46-4.19,8.28-6.17,1.23-.86,2.48-1.72,3.74-2.55.63-.41,1.26-.83,1.89-1.24.63-.41,1.28-.82,1.91-1.22.64-.4,1.28-.8,1.93-1.2.64-.39,1.29-.77,1.94-1.16.65-.4,1.31-.79,1.95-1.15,1.3-.76,2.62-1.51,3.96-2.23,1.33-.73,2.67-1.44,4.02-2.13.67-.34,1.36-.69,2.03-1.02.85-.43,1.7-.83,2.56-1.25,1.93-.94,3.87-1.83,5.83-2.68.66-.28,1.32-.57,1.97-.85,1.4-.59,2.83-1.17,4.25-1.72.63-.26,1.24-.5,1.88-.73,3.75-1.44,7.57-2.75,11.45-3.93.64-.2,1.29-.39,1.94-.58,1.48-.45,2.97-.85,4.46-1.26,1.5-.4,3.01-.78,4.52-1.14,1.52-.37,3.03-.71,4.56-1.03,3.05-.65,6.14-1.22,9.24-1.71.87-.14,1.74-.28,2.62-.4,1.76-.26,3.51-.49,5.27-.69.89-.1,1.77-.2,2.65-.28,1.19-.13,2.38-.23,3.56-.32h.04s.06-.01.1-.01c.08,0,.17-.02.26-.02.16-.01.31-.03.48-.04h.24c.27-.02.54-.02.82-.02,3.22,0,6.27.85,8.88,2.35,1.56.88,2.99,1.99,4.21,3.31.09.1.19.2.28.28.17.2.34.38.5.58-.49.26-1.05.4-1.64.4h-.09c-.33,0-.65-.07-.95-.16,0,0-.02-.01-.03-.01-.24-.07-.48-.18-.68-.3,0,0,0,0-.01,0-.73-.26-1.5-.42-2.32-.42-2.71,0-5.04,1.64-6.05,3.97,1.27-1.5,3.18-2.45,5.3-2.45.48,0,.95.05,1.4.14h.01c.72.14,1.39.4,2,.76-3.18.59-5.67,3.15-6.15,6.37-.02.21-.05.43-.05.65-.01.16-.02.31-.02.47,0,.85.14,1.69.41,2.46.23.65.54,1.28.93,1.84l.02.02.62,1.13,5.4,9.81,1.74,3.18v10.88s-.02,0-.06-.02c-.84-.26-1.68-.45-2.56-.56-.57-.07-1.16-.11-1.75-.11-2.93,0-5.67.87-7.95,2.38-1.34.86-2.5,1.94-3.47,3.18-1.2,1.52-2.1,3.29-2.59,5.24v.02c-.1.61-.22,1.21-.35,1.81-.48,2.15-1.26,4.18-2.29,6.07-1.27,2.32-2.92,4.42-4.85,6.21-2.22,2.03-4.82,3.65-7.69,4.75,2.05.55,4.21.83,6.44.83,1.71,0,3.38-.17,4.99-.5-.24.83-.36,1.7-.36,2.59,0,5.27,4.29,9.56,9.58,9.56.92,0,1.81-.13,2.65-.38h.02c.09,2.61,1.16,5,2.83,6.8.25.25.49.49.76.73.02,0,.02.02.03.02.2.17.39.32.58.47,0,0,.02,0,.02.02.2.14.41.28.62.42.22.14.44.27.67.39.21.11.42.22.64.32.04.02.07.04.1.04.22.1.45.2.67.28.18.07.36.13.55.17.14.05.28.1.43.13.17.04.34.08.51.11.19.04.36.07.55.1.17.04.33.05.51.07.18.03.35.04.53.04.18.01.36.02.54.02h.02c.18,0,.35,0,.53-.02.18,0,.35-.01.53-.04.19-.02.35-.03.53-.07.18-.02.35-.05.52-.1.34-.07.68-.15,1.01-.26.17-.04.34-.1.5-.16.18-.07.34-.14.51-.22.14-.05.28-.13.43-.19.31-.14.61-.31.9-.49.14-.08.28-.18.42-.27.14-.08.28-.19.42-.29.12-.09.25-.19.36-.28.02,0,.04-.02.05-.04.39-.31.76-.65,1.08-1.03.11-.13.22-.25.33-.37.21-.26.42-.54.61-.82.09-.14.19-.28.28-.43.18-.29.34-.59.49-.9.22-.46.4-.94.57-1.42.1-.33.19-.67.26-1,.03-.18.06-.34.09-.52.06-.4.1-.81.11-1.22,0,0,0,.01.02.01.84.24,1.73.37,2.65.37,5.29,0,9.58-4.28,9.58-9.56,0-.89-.13-1.77-.36-2.59,1.62.34,3.29.5,5.01.5,2.24,0,4.41-.29,6.47-.84-2.88-1.09-5.48-2.72-7.71-4.76-1.94-1.79-3.58-3.88-4.86-6.21-1.02-1.9-1.8-3.94-2.29-6.09h0c-.14-.56-.25-1.13-.33-1.7v-.04c-.49-1.95-1.4-3.74-2.61-5.28-.97-1.24-2.13-2.33-3.46-3.18-2.28-1.5-5.01-2.38-7.95-2.38-.59,0-1.18.04-1.75.11-.91.11-1.79.31-2.63.58v-10.88l1.75-3.18,5.41-9.81.62-1.13.02-.02c.39-.56.7-1.17.92-1.83.28-.79.41-1.61.41-2.47,0-.17-.01-.32-.02-.47-.01-.17-.02-.35-.05-.53-.43-3.27-2.94-5.89-6.15-6.48.61-.35,1.3-.61,2.01-.76h0c.45-.1.93-.14,1.4-.14,2.13,0,4.04.95,5.3,2.45-1.01-2.33-3.34-3.97-6.04-3.97-.8,0-1.56.14-2.27.4,0,0-.02,0-.03.02-.23.13-.48.25-.73.32-.3.09-.62.15-.96.16h-.1c-.59,0-1.14-.14-1.63-.39.18-.21.35-.42.54-.62.04-.04.07-.08.1-.11.04-.05.1-.1.14-.14,1.23-1.32,2.64-2.44,4.2-3.31,2.36-1.36,5.06-2.18,7.93-2.33.31-.02.64-.02.96-.02,1.46,0,2.87.17,4.22.49,48.95,5.12,92.15,29.5,121.84,65.39,3.78,4.57,7.34,9.32,10.67,14.25,19.62,29.05,31.07,64.04,31.07,101.71,0,3.84-.12,7.67-.35,11.44l-.02-.02Z"/>
  <path class="cls-5" d="M530.62,111.21c-3.21-5.16-6.68-10.15-10.37-14.97-34.62-45.15-89.21-74.28-150.62-74.28s-116.32,29.3-150.92,74.68c-3.74,4.89-7.23,9.96-10.47,15.21-17.83,28.8-28.1,62.74-28.1,99.07,0,5.37.23,10.7.66,15.95.38,4.61.94,9.16,1.66,13.68.47,3.05,1.02,6.07,1.65,9.08,13.84,66.33,62.57,119.91,126.19,140.81,4.32,1.42,8.72,2.7,13.19,3.8.98.26,1.97.49,2.98.73,1.99.46,3.99.89,6,1.28,4.02.81,8.09,1.48,12.21,2.01,8.16,1.07,16.49,1.62,24.96,1.62,9.07,0,17.98-.64,26.71-1.87,4.25-.59,8.46-1.34,12.61-2.21,1.79-.37,3.56-.76,5.32-1.2,1.23-.29,2.45-.59,3.67-.91,4.47-1.18,8.87-2.49,13.19-3.98,62.93-21.53,110.9-75.15,124.25-141.27.6-2.99,1.14-6.02,1.59-9.06.69-4.5,1.2-9.03,1.56-13.63.39-4.89.58-9.82.58-14.82,0-36.6-10.44-70.77-28.5-99.71h0ZM376.42,43.84c.05.37.08.77.08,1.18,0,.38-.03.77-.08,1.14l-.38-.37-2.95-2.93-.59.86-1.67,2.44h0s-.16.22-.16.22l-.16-.22-.4-.58h0s-1.29-1.88-1.29-1.88l-.58-.83-.85.85-.4.39-2.06,2.05c-.06-.37-.09-.76-.09-1.14,0-.43.03-.85.1-1.26,0-.05.01-.1.02-.14v-.04c0-2.17.92-4.13,2.38-5.49.13-.14.28-.26.43-.38.11-.08.22-.17.32-.25.34-.26.7-.47,1.09-.66.33-.16.68-.31,1.05-.42.14-.05.28-.09.43-.13.16.04.3.08.44.14.35.11.7.25,1.04.41.37.19.74.4,1.08.66.12.07.23.16.34.25.15.12.28.24.42.37h.01c1.46,1.39,2.38,3.33,2.38,5.51v.04c0,.07.02.15.04.23h0ZM374.29,96.69c0,1-.14,1.97-.39,2.9h0s-.18.71-.18.71l-.51,2.06-.59,2.32-.33,1.31-.13.52-1.49,5.91h0l-1.49-5.92-.45-1.82-.59-2.32-.52-2.07-.17-.69c-.26-.93-.4-1.91-.4-2.91,0-1.11.17-2.18.47-3.18-1,1.32-2.31,2.41-3.81,3.15-.74.37-1.53.66-2.36.85-.43.1-.87.18-1.32.23-.02.02-.06.05-.08.07v-.06c-.06-.26-.1-.5-.12-.77-.05-.42-.08-.85-.08-1.28,0-1,.14-1.97.4-2.9v-.02c.1-.27.19-.53.26-.82,0,0,0,0,0-.01.19-.52.41-1,.67-1.47,1.04-1.91,2.63-3.47,4.57-4.47.62-.31,1.27-.58,1.94-.77.64-.2,1.29-.32,1.97-.38.36-.05.73-.06,1.11-.06s.75.01,1.11.06c.68.07,1.35.19,1.98.38.67.19,1.32.45,1.94.77,1.94,1,3.54,2.56,4.58,4.46.26.48.48.97.67,1.49h0c.08.27.17.51.24.77,0,.02.02.05.02.07.27.92.4,1.9.4,2.9,0,.43-.03.85-.08,1.27-.02.26-.07.52-.12.77v.07s-.06-.05-.1-.08c-.45-.05-.89-.13-1.32-.23-.82-.19-1.61-.48-2.35-.85-1.52-.76-2.83-1.85-3.84-3.17.32,1.01.49,2.09.49,3.2ZM552.15,222.36c-.29,4.53-.73,9.02-1.35,13.47-.4,3.02-.89,6-1.46,8.98-12.03,63.88-57.49,116.02-117.58,137.65-4.25,1.54-8.58,2.92-12.98,4.14-2.92.82-5.86,1.55-8.85,2.22-1.2.27-2.42.53-3.63.77-5.8,1.18-11.68,2.08-17.65,2.7-6.26.65-12.61.97-19.03.97-5.79,0-11.51-.26-17.16-.8-6.06-.56-12.02-1.41-17.9-2.55-1.03-.2-2.06-.4-3.09-.63-2.98-.62-5.93-1.33-8.85-2.1-4.4-1.16-8.72-2.48-12.98-3.96-60.8-21.03-107.03-73.18-119.51-137.32-.58-2.97-1.1-5.97-1.52-8.99-.64-4.46-1.11-8.95-1.42-13.51-.28-4.12-.42-8.27-.42-12.46,0-37.46,11.33-72.28,30.76-101.25,3.35-5,6.93-9.81,10.77-14.44.48-.58.96-1.15,1.44-1.73.32-.38.65-.77.97-1.15.96-1.12,1.94-2.23,2.93-3.32.37-.41.76-.83,1.14-1.25.46-.51.92-1.01,1.39-1.52.71-.75,1.41-1.48,2.12-2.21.46-.47.93-.97,1.41-1.44,1.23-1.24,2.47-2.45,3.72-3.63.6-.58,1.2-1.14,1.8-1.7,1.13-1.03,2.27-2.06,3.41-3.08.56-.49,1.12-.98,1.69-1.46.78-.66,1.55-1.33,2.34-1.97.63-.53,1.27-1.05,1.91-1.57.58-.47,1.15-.93,1.74-1.39,2.69-2.13,5.46-4.19,8.28-6.17,1.23-.86,2.48-1.72,3.74-2.55.63-.41,1.26-.83,1.89-1.24.63-.41,1.28-.82,1.91-1.22.64-.4,1.28-.8,1.93-1.2.64-.39,1.29-.77,1.94-1.16.65-.4,1.31-.79,1.95-1.15,1.3-.76,2.62-1.51,3.96-2.23,1.33-.73,2.67-1.44,4.02-2.13.67-.34,1.36-.69,2.03-1.02.85-.43,1.7-.83,2.56-1.25,1.93-.94,3.87-1.83,5.83-2.68.66-.28,1.32-.57,1.97-.85,1.4-.59,2.83-1.17,4.25-1.72.63-.26,1.24-.5,1.88-.73,3.75-1.44,7.57-2.75,11.45-3.93.64-.2,1.29-.39,1.94-.58,1.48-.45,2.97-.85,4.46-1.26,1.5-.4,3.01-.78,4.52-1.14,1.52-.37,3.03-.71,4.56-1.03,3.05-.65,6.14-1.22,9.24-1.71.87-.14,1.74-.28,2.62-.4,1.76-.26,3.51-.49,5.27-.69.89-.1,1.77-.2,2.65-.28,1.19-.13,2.38-.23,3.56-.32h.04s.06-.01.1-.01c.08,0,.17-.02.26-.02.16-.01.31-.03.48-.04h.24c.27-.02.54-.02.82-.02,3.22,0,6.27.85,8.88,2.35,1.56.88,2.99,1.99,4.21,3.31.09.1.19.2.28.28.17.2.34.38.5.58-.49.26-1.05.4-1.64.4h-.09c-.33,0-.65-.07-.95-.16,0,0-.02-.01-.03-.01-.24-.07-.48-.18-.68-.3,0,0,0,0-.01,0-.73-.26-1.5-.42-2.32-.42-2.71,0-5.04,1.64-6.05,3.97,1.27-1.5,3.18-2.45,5.3-2.45.48,0,.95.05,1.4.14h.01c.72.14,1.39.4,2,.76-3.18.59-5.67,3.15-6.15,6.37-.02.21-.05.43-.05.65-.01.16-.02.31-.02.47,0,.85.14,1.69.41,2.46.23.65.54,1.28.93,1.84l.02.02.62,1.13,5.4,9.81,1.74,3.18v10.88s-.02,0-.06-.02c-.84-.26-1.68-.45-2.56-.56-.57-.07-1.16-.11-1.75-.11-2.93,0-5.67.87-7.95,2.38-1.34.86-2.5,1.94-3.47,3.18-1.2,1.52-2.1,3.29-2.59,5.24v.02c-.1.61-.22,1.21-.35,1.81-.48,2.15-1.26,4.18-2.29,6.07-1.27,2.32-2.92,4.42-4.85,6.21-2.22,2.03-4.82,3.65-7.69,4.75,2.05.55,4.21.83,6.44.83,1.71,0,3.38-.17,4.99-.5-.24.83-.36,1.7-.36,2.59,0,5.27,4.29,9.56,9.58,9.56.92,0,1.81-.13,2.65-.38h.02c.09,2.61,1.16,5,2.83,6.8.25.25.49.49.76.73.02,0,.02.02.03.02.2.17.39.32.58.47,0,0,.02,0,.02.02.2.14.41.28.62.42.22.14.44.27.67.39.21.11.42.22.64.32.04.02.07.04.1.04.22.1.45.2.67.28.18.07.36.13.55.17.14.05.28.1.43.13.17.04.34.08.51.11.19.04.36.07.55.1.17.04.33.05.51.07.18.03.35.04.53.04.18.01.36.02.54.02h.02c.18,0,.35,0,.53-.02.18,0,.35-.01.53-.04.19-.02.35-.03.53-.07.18-.02.35-.05.52-.1.34-.07.68-.15,1.01-.26.17-.04.34-.1.5-.16.18-.07.34-.14.51-.22.14-.05.28-.13.43-.19.31-.14.61-.31.9-.49.14-.08.28-.18.42-.27.14-.08.28-.19.42-.29.12-.09.25-.19.36-.28.02,0,.04-.02.05-.04.39-.31.76-.65,1.08-1.03.11-.13.22-.25.33-.37.21-.26.42-.54.61-.82.09-.14.19-.28.28-.43.18-.29.34-.59.49-.9.22-.46.4-.94.57-1.42.1-.33.19-.67.26-1,.03-.18.06-.34.09-.52.06-.4.1-.81.11-1.22,0,0,0,.01.02.01.84.24,1.73.37,2.65.37,5.29,0,9.58-4.28,9.58-9.56,0-.89-.13-1.77-.36-2.59,1.62.34,3.29.5,5.01.5,2.24,0,4.41-.29,6.47-.84-2.88-1.09-5.48-2.72-7.71-4.76-1.94-1.79-3.58-3.88-4.86-6.21-1.02-1.9-1.8-3.94-2.29-6.09h0c-.14-.56-.25-1.13-.33-1.7v-.04c-.49-1.95-1.4-3.74-2.61-5.28-.97-1.24-2.13-2.33-3.46-3.18-2.28-1.5-5.01-2.38-7.95-2.38-.59,0-1.18.04-1.75.11-.91.11-1.79.31-2.63.58v-10.88l1.75-3.18,5.41-9.81.62-1.13.02-.02c.39-.56.7-1.17.92-1.83.28-.79.41-1.61.41-2.47,0-.17-.01-.32-.02-.47-.01-.17-.02-.35-.05-.53-.43-3.27-2.94-5.89-6.15-6.48.61-.35,1.3-.61,2.01-.76h0c.45-.1.93-.14,1.4-.14,2.13,0,4.04.95,5.3,2.45-1.01-2.33-3.34-3.97-6.04-3.97-.8,0-1.56.14-2.27.4,0,0-.02,0-.03.02-.23.13-.48.25-.73.32-.3.09-.62.15-.96.16h-.1c-.59,0-1.14-.14-1.63-.39.18-.21.35-.42.54-.62.04-.04.07-.08.1-.11.04-.05.1-.1.14-.14,1.23-1.32,2.64-2.44,4.2-3.31,2.36-1.36,5.06-2.18,7.93-2.33.31-.02.64-.02.96-.02,1.46,0,2.87.17,4.22.49,48.95,5.12,92.15,29.5,121.84,65.39,3.78,4.57,7.34,9.32,10.67,14.25,19.62,29.05,31.07,64.04,31.07,101.71,0,3.84-.12,7.67-.35,11.44l-.02-.02Z"/>
  <path class="cls-1" d="M354.66,306.94l-.1.16c-.05.08-.09.16-.13.23-1.87,3.28-2.82,7.03-2.76,10.83.05,3.14.78,6.15,2.15,8.97,1.47,3.02,3.67,5.69,6.38,7.71,2.94,2.21,6.4,3.62,10.04,4.1,1.04.13,2.1.19,3.14.17,1.37-.02,2.73-.17,4.06-.45,9.87-2.07,16.95-10.8,16.95-20.85v-.36c-.02-1.44-.19-2.86-.49-4.19-.08-.43-.19-.85-.3-1.22-1.4-5.52-3.36-10.95-5.81-16.16-6-12.75-15.04-24.14-26.14-32.92h-.01s-1.93-1.53-1.93-1.53l.59,2.36v.02c1.08,4.34,1.66,8.84,1.74,13.39.1,6.11-.72,12.15-2.46,17.98-1.2,4.06-2.87,8.02-4.95,11.78v-.02ZM363.75,277.15c-.04-2.66-.27-5.31-.65-7.92,2.1,4.89,3.25,10.17,3.34,15.54.08,4.86-.68,9.64-2.26,14.19-.16.44.08.91.52,1.07.1.03.2.05.29.05.34,0,.66-.23.78-.56,1.64-4.74,2.44-9.71,2.35-14.77-.07-4.48-.87-8.88-2.3-13.08,3.49,6.23,5.42,13.25,5.55,20.47.03,1.73-.06,3.55-.26,5.4-.05.46.28.87.75.92.47.07.88-.28.93-.74.21-1.92.29-3.82.26-5.61-.1-6.21-1.49-12.28-4.03-17.86,4.75,7.23,7.76,15.51,8.7,24.18.05.43.42.76.85.75h.08c.46-.05.8-.46.75-.92-.98-9.01-4.14-17.6-9.1-25.08,6.51,6.92,11.95,14.86,15.98,23.43,2.41,5.1,4.32,10.44,5.71,15.89.11.35.21.73.28,1.12.28,1.24.43,2.54.45,3.87.16,9.39-6.4,17.61-15.61,19.54-2.16.46-4.43.54-6.64.26-3.34-.44-6.54-1.75-9.24-3.77-2.49-1.87-4.53-4.33-5.88-7.11-1.27-2.59-1.94-5.36-1.98-8.26-.06-3.5.82-6.95,2.54-9.99l.23-.39c2.14-3.86,3.85-7.94,5.09-12.11,1.79-5.99,2.63-12.21,2.52-18.49h0Z"/>
  <path class="cls-17" d="M354.66,306.94l-.1.16c-.05.08-.09.16-.13.23-1.87,3.28-2.82,7.03-2.76,10.83.05,3.14.78,6.15,2.15,8.97,1.47,3.02,3.67,5.69,6.38,7.71,2.94,2.21,6.4,3.62,10.04,4.1,1.04.13,2.1.19,3.14.17,1.37-.02,2.73-.17,4.06-.45,9.87-2.07,16.95-10.8,16.95-20.85v-.36c-.02-1.44-.19-2.86-.49-4.19-.08-.43-.19-.85-.3-1.22-1.4-5.52-3.36-10.95-5.81-16.16-6-12.75-15.04-24.14-26.14-32.92h-.01s-1.93-1.53-1.93-1.53l.59,2.36v.02c1.08,4.34,1.66,8.84,1.74,13.39.1,6.11-.72,12.15-2.46,17.98-1.2,4.06-2.87,8.02-4.95,11.78v-.02ZM363.75,277.15c-.04-2.66-.27-5.31-.65-7.92,2.1,4.89,3.25,10.17,3.34,15.54.08,4.86-.68,9.64-2.26,14.19-.16.44.08.91.52,1.07.1.03.2.05.29.05.34,0,.66-.23.78-.56,1.64-4.74,2.44-9.71,2.35-14.77-.07-4.48-.87-8.88-2.3-13.08,3.49,6.23,5.42,13.25,5.55,20.47.03,1.73-.06,3.55-.26,5.4-.05.46.28.87.75.92.47.07.88-.28.93-.74.21-1.92.29-3.82.26-5.61-.1-6.21-1.49-12.28-4.03-17.86,4.75,7.23,7.76,15.51,8.7,24.18.05.43.42.76.85.75h.08c.46-.05.8-.46.75-.92-.98-9.01-4.14-17.6-9.1-25.08,6.51,6.92,11.95,14.86,15.98,23.43,2.41,5.1,4.32,10.44,5.71,15.89.11.35.21.73.28,1.12.28,1.24.43,2.54.45,3.87.16,9.39-6.4,17.61-15.61,19.54-2.16.46-4.43.54-6.64.26-3.34-.44-6.54-1.75-9.24-3.77-2.49-1.87-4.53-4.33-5.88-7.11-1.27-2.59-1.94-5.36-1.98-8.26-.06-3.5.82-6.95,2.54-9.99l.23-.39c2.14-3.86,3.85-7.94,5.09-12.11,1.79-5.99,2.63-12.21,2.52-18.49h0Z"/>
  <path class="cls-1" d="M358.12,319.37c.74-.01,1.33-.62,1.31-1.35-.01-.73-.62-1.31-1.36-1.3-.73.01-1.32.62-1.31,1.35s.62,1.31,1.35,1.3Z"/>
  <path class="cls-19" d="M358.12,319.37c.74-.01,1.33-.62,1.31-1.35-.01-.73-.62-1.31-1.36-1.3-.73.01-1.32.62-1.31,1.35s.62,1.31,1.35,1.3Z"/>
  <path class="cls-1" d="M372.11,304.04c.2.12.44.19.7.19.74-.01,1.33-.62,1.31-1.36-.01-.73-.62-1.31-1.36-1.3-.17,0-.34.04-.49.1-.49.21-.82.7-.81,1.25,0,.48.27.89.65,1.12h0Z"/>
  <path class="cls-25" d="M372.11,304.04c.2.12.44.19.7.19.74-.01,1.33-.62,1.31-1.36-.01-.73-.62-1.31-1.36-1.3-.17,0-.34.04-.49.1-.49.21-.82.7-.81,1.25,0,.48.27.89.65,1.12h0Z"/>
  <path class="cls-1" d="M363.26,308.36c.51-.53.5-1.37-.03-1.88-.53-.51-1.37-.5-1.88.03-.51.53-.5,1.37.03,1.88.53.51,1.37.5,1.88-.03Z"/>
  <path class="cls-10" d="M363.26,308.36c.51-.53.5-1.37-.03-1.88-.53-.51-1.37-.5-1.88.03-.51.53-.5,1.37.03,1.88.53.51,1.37.5,1.88-.03Z"/>
  <path class="cls-1" d="M361.7,327.58c-.51.53-.5,1.37.03,1.88.53.51,1.37.5,1.88-.03.51-.53.5-1.37-.03-1.88-.53-.5-1.37-.49-1.88.03Z"/>
  <path class="cls-7" d="M361.7,327.58c-.51.53-.5,1.37.03,1.88.53.51,1.37.5,1.88-.03.51-.53.5-1.37-.03-1.88-.53-.5-1.37-.49-1.88.03Z"/>
  <path class="cls-1" d="M373.78,331.44c-.15-.05-.32-.09-.5-.08-.73.01-1.32.62-1.31,1.36,0,.49.28.92.69,1.14.19.11.42.17.66.16.74-.01,1.33-.62,1.31-1.35-.01-.56-.36-1.03-.86-1.23h0Z"/>
  <path class="cls-18" d="M373.78,331.44c-.15-.05-.32-.09-.5-.08-.73.01-1.32.62-1.31,1.36,0,.49.28.92.69,1.14.19.11.42.17.66.16.74-.01,1.33-.62,1.31-1.35-.01-.56-.36-1.03-.86-1.23h0Z"/>
  <path class="cls-1" d="M365.61,326.24c2.12,1.85,4.83,2.84,7.63,2.79.54-.01,1.09-.06,1.64-.15,5.41-.88,9.44-5.63,9.44-11.09v-.19c-.07-3.87-2.08-7.38-5.4-9.4-1.83-1.12-3.93-1.68-6.08-1.65-.35,0-.7.03-1.05.07-5.82.63-10.13,5.52-10.03,11.36.05,3.15,1.45,6.17,3.84,8.26h0ZM371.56,308.45c.44-.07.87-.11,1.33-.12,2.22-.04,4.28.68,5.91,1.93,2.23,1.7,3.69,4.36,3.74,7.37.07,4.42-2.91,8.18-7,9.29-.74.2-1.52.31-2.33.32-2.62.04-5-.97-6.75-2.65-1.74-1.69-2.85-4.04-2.89-6.65-.08-4.77,3.4-8.78,7.99-9.5Z"/>
  <path class="cls-21" d="M365.61,326.24c2.12,1.85,4.83,2.84,7.63,2.79.54-.01,1.09-.06,1.64-.15,5.41-.88,9.44-5.63,9.44-11.09v-.19c-.07-3.87-2.08-7.38-5.4-9.4-1.83-1.12-3.93-1.68-6.08-1.65-.35,0-.7.03-1.05.07-5.82.63-10.13,5.52-10.03,11.36.05,3.15,1.45,6.17,3.84,8.26h0ZM371.56,308.45c.44-.07.87-.11,1.33-.12,2.22-.04,4.28.68,5.91,1.93,2.23,1.7,3.69,4.36,3.74,7.37.07,4.42-2.91,8.18-7,9.29-.74.2-1.52.31-2.33.32-2.62.04-5-.97-6.75-2.65-1.74-1.69-2.85-4.04-2.89-6.65-.08-4.77,3.4-8.78,7.99-9.5Z"/>
  <path class="cls-1" d="M382.84,327.22c-.51.53-.5,1.37.03,1.88.52.51,1.37.5,1.88-.03.51-.53.5-1.37-.03-1.88-.52-.5-1.37-.49-1.88.03Z"/>
  <path class="cls-20" d="M382.84,327.22c-.51.53-.5,1.37.03,1.88.52.51,1.37.5,1.88-.03.51-.53.5-1.37-.03-1.88-.52-.5-1.37-.49-1.88.03Z"/>
  <path class="cls-1" d="M384.38,308c.51-.53.5-1.37-.03-1.88-.52-.51-1.37-.5-1.88.03-.51.53-.5,1.37.03,1.88.52.51,1.37.5,1.88-.03Z"/>
  <path class="cls-24" d="M384.38,308c.51-.53.5-1.37-.03-1.88-.52-.51-1.37-.5-1.88.03-.51.53-.5,1.37.03,1.88.52.51,1.37.5,1.88-.03Z"/>
  <path class="cls-1" d="M388.01,318.86c.73-.01,1.32-.62,1.31-1.35-.01-.73-.62-1.31-1.35-1.3-.74.01-1.32.62-1.3,1.35.01.73.61,1.31,1.35,1.3Z"/>
  <path class="cls-9" d="M388.01,318.86c.73-.01,1.32-.62,1.31-1.35-.01-.73-.62-1.31-1.35-1.3-.74.01-1.32.62-1.3,1.35.01.73.61,1.31,1.35,1.3Z"/>
  <path class="cls-1" d="M367.39,318.5l4.65-.08-3.23,3.33c-.16.16-.15.43.01.59.17.16.44.15.6-.01l3.23-3.33.08,4.64c0,.23.2.41.43.41s.42-.2.42-.42l-.08-4.64,3.35,3.22s.07.05.1.07c.16.08.36.06.49-.08.08-.08.12-.19.12-.31,0-.11-.05-.22-.13-.29l-.25-.24-3.1-2.98,4.65-.08c.23,0,.42-.2.42-.43s-.19-.41-.43-.41l-4.65.08,3.23-3.33c.16-.17.16-.44-.01-.59-.08-.08-.2-.12-.31-.12-.1,0-.21.05-.3.13l-3.23,3.33-.08-4.64c0-.23-.19-.41-.43-.41s-.42.19-.42.43l.08,4.64-2.42-2.33-.93-.89c-.16-.16-.43-.16-.6.01-.16.16-.15.43.01.59l1.25,1.21,2.09,2.02-4.65.08c-.23,0-.42.19-.42.43s.2.41.43.41h0Z"/>
  <path class="cls-2" d="M367.39,318.5l4.65-.08-3.23,3.33c-.16.16-.15.43.01.59.17.16.44.15.6-.01l3.23-3.33.08,4.64c0,.23.2.41.43.41s.42-.2.42-.42l-.08-4.64,3.35,3.22s.07.05.1.07c.16.08.36.06.49-.08.08-.08.12-.19.12-.31,0-.11-.05-.22-.13-.29l-.25-.24-3.1-2.98,4.65-.08c.23,0,.42-.2.42-.43s-.19-.41-.43-.41l-4.65.08,3.23-3.33c.16-.17.16-.44-.01-.59-.08-.08-.2-.12-.31-.12-.1,0-.21.05-.3.13l-3.23,3.33-.08-4.64c0-.23-.19-.41-.43-.41s-.42.19-.42.43l.08,4.64-2.42-2.33-.93-.89c-.16-.16-.43-.16-.6.01-.16.16-.15.43.01.59l1.25,1.21,2.09,2.02-4.65.08c-.23,0-.42.19-.42.43s.2.41.43.41h0Z"/>
  <path class="cls-1" d="M369.5,0c-116.82,0-211.53,94.42-211.53,210.92s94.71,210.92,211.53,210.92,211.52-94.43,211.52-210.92S486.32,0,369.5,0ZM566.89,245.86c-.55,3.1-1.16,6.18-1.86,9.23-15.77,69.61-67.97,125.44-135.59,146.51-.04.25-.09.51-.14.76-.32-.13-.64-.29-.96-.43-4.11,1.26-8.27,2.38-12.49,3.37-1.97.47-3.96.91-5.96,1.32-1.09.23-2.2.44-3.3.64-11.96,2.22-24.3,3.38-36.91,3.38-11.89,0-23.52-1.03-34.82-3.01-1.32-.23-2.62-.47-3.91-.73-1.79-.35-3.57-.72-5.33-1.12-4.54-1.01-9-2.18-13.41-3.51-.05.03-.1.05-.16.08l-.02-.12c-68.23-20.42-121.14-76.11-137.41-145.85-.72-3.05-1.36-6.14-1.93-9.26-.85-4.59-1.53-9.23-2.05-13.93-.82-7.32-1.24-14.75-1.24-22.29,0-34.03,8.55-66.08,23.62-94.13,3.04-5.68,6.36-11.18,9.93-16.52C238.83,46.57,300.11,11.21,369.68,11.21s130.34,35.07,166.29,88.39c3.54,5.25,6.84,10.67,9.87,16.26,15.38,28.26,24.1,60.64,24.1,95.06,0,7.11-.37,14.13-1.1,21.05-.49,4.68-1.14,9.32-1.96,13.9h0Z"/>
  <path class="cls-11" d="M369.5,0c-116.82,0-211.53,94.42-211.53,210.92s94.71,210.92,211.53,210.92,211.52-94.43,211.52-210.92S486.32,0,369.5,0ZM566.89,245.86c-.55,3.1-1.16,6.18-1.86,9.23-15.77,69.61-67.97,125.44-135.59,146.51-.04.25-.09.51-.14.76-.32-.13-.64-.29-.96-.43-4.11,1.26-8.27,2.38-12.49,3.37-1.97.47-3.96.91-5.96,1.32-1.09.23-2.2.44-3.3.64-11.96,2.22-24.3,3.38-36.91,3.38-11.89,0-23.52-1.03-34.82-3.01-1.32-.23-2.62-.47-3.91-.73-1.79-.35-3.57-.72-5.33-1.12-4.54-1.01-9-2.18-13.41-3.51-.05.03-.1.05-.16.08l-.02-.12c-68.23-20.42-121.14-76.11-137.41-145.85-.72-3.05-1.36-6.14-1.93-9.26-.85-4.59-1.53-9.23-2.05-13.93-.82-7.32-1.24-14.75-1.24-22.29,0-34.03,8.55-66.08,23.62-94.13,3.04-5.68,6.36-11.18,9.93-16.52C238.83,46.57,300.11,11.21,369.68,11.21s130.34,35.07,166.29,88.39c3.54,5.25,6.84,10.67,9.87,16.26,15.38,28.26,24.1,60.64,24.1,95.06,0,7.11-.37,14.13-1.1,21.05-.49,4.68-1.14,9.32-1.96,13.9h0Z"/>
  <path class="cls-1" d="M476.96,204.64c-7.72,0-15.33.53-22.79,1.54v-107.69c-4.27,1-8.48,2.16-12.61,3.5-27.37,8.75-51.66,24.33-70.89,44.7-19.22-20.39-43.52-35.96-70.89-44.71-4.13-1.33-8.34-2.49-12.61-3.49v107.69c-7.45-1.01-15.06-1.54-22.79-1.54-13.75,0-27.11,1.65-39.9,4.76-1.9.48-3.87.74-5.91.74-1.16,0-2.31-.08-3.42-.25-.36-.05-.71-.11-1.05-.19-.18-.02-.35-.06-.53-.11-1.35-.28-2.65-.68-3.9-1.2-.21-.08-.39-.16-.59-.25-.12-.05-.23-.1-.34-.16-.11-.04-.23-.1-.33-.15-.1-.05-.2-.1-.3-.16-.57-.28-1.12-.58-1.67-.91-.08-.04-.16-.09-.25-.14-.11-.07-.22-.13-.33-.22-.41-.26-.81-.53-1.2-.82-.16-.11-.3-.22-.45-.34-.18-.12-.35-.26-.52-.4-.08-.07-.17-.13-.25-.2-.47-.38-.91-.78-1.35-1.21-.11,2.46-.17,4.94-.17,7.43,0,1.91.03,3.79.1,5.68.15,4.45.46,8.85.96,13.21.32,2.96.74,5.88,1.23,8.79,8.47,50.65,39.75,93.6,82.96,117.95,4.1,2.32,8.3,4.46,12.61,6.42v-132.93c-4.14-1.03-8.34-1.87-12.61-2.53v113.7c-37.19-23.46-63.65-62.31-70.36-107.58-.43-2.87-.78-5.75-1.03-8.67,14.91-4.9,30.8-7.61,47.33-7.74.42-.01.85-.01,1.27-.01,7.74,0,15.35.56,22.79,1.66.23.04.46.07.69.11.61.08,1.23.19,1.85.28,3.39.56,6.75,1.22,10.08,1.99,9.77,2.29,19.18,5.48,28.14,9.5,1.27.56,2.53,1.15,3.8,1.76,2.24,1.07,4.44,2.21,6.62,3.39.37.2.73.4,1.1.6.04.02.07.05.1.06.05.03.12.07.16.08.17.1.34.19.51.29.77.43,1.53.86,2.29,1.31,1.29.76,2.57,1.52,3.84,2.32,3.3,2.04,6.52,4.23,9.64,6.51,1.73,1.27,3.44,2.56,5.11,3.9.45.35.89.71,1.34,1.08.04.03.06.05.1.09,1.62,1.31,3.21,2.66,4.78,4.06,1.14,1,2.26,2.02,3.36,3.07,2.08,1.93,4.11,3.95,6.08,6.01,1.96,2.05,3.87,4.16,5.73,6.33,6.47,7.58,12.23,15.77,17.16,24.5.25.44.49.89.74,1.32,0,0,0,0,.01.02,1.38,2.04,2.53,4.24,3.43,6.57.01.02.02.04.02.06,1.38,3.61,2.14,7.53,2.14,11.63,0,1.27-.07,2.51-.21,3.73v.02c-.3,2.66-.93,5.24-1.84,7.66-1.38,3.68-3.41,7.05-5.94,9.98-5.28,6.08-12.77,10.19-21.22,11.1-1.17.13-2.37.19-3.57.19-3.27,0-6.42-.47-9.41-1.37-12.66-3.79-22.09-14.98-23.23-28.53v-.02c-.08-.91-.12-1.83-.12-2.75,0-4.76,1.02-9.29,2.87-13.38.21-.47.43-.92.66-1.38.65-1.27,1.36-2.48,2.16-3.64,0,0,.01,0,.01-.02.13-.25.27-.49.39-.72,0-.02.01-.02.01-.02,2.59-4.99,4.44-10.42,5.36-16.17.04-.27.08-.53.13-.78,0,0,.01,0,.01-.01.19-1.33.34-2.66.43-4,.02-.22.04-.43.04-.65.07-1.07.1-2.13.1-3.21,0-3.71-.38-7.33-1.1-10.83-.02-.16-.07-.34-.1-.51-.05-.23-.1-.46-.16-.7-.11-.5-.23-.99-.35-1.47-.13-.49-.26-.98-.4-1.46-.07-.22-.13-.43-.2-.65-.01-.07-.03-.13-.06-.19-.33-1.11-.72-2.19-1.11-3.26-.11-.29-.22-.58-.34-.86-.93-2.33-2.02-4.56-3.27-6.7-.13-.24-.27-.47-.4-.7-1.02-1.67-2.33-3.14-3.86-4.34-.54-.43-1.1-.81-1.68-1.17-.39,1.41-.59,2.9-.59,4.43,0,2.25.43,4.4,1.24,6.36,0,.03.02.06.03.09.11.35.24.7.38,1.03.02.08.04.13.05.2,0,.02.02.02.02.04.01.06.03.13.05.19.35,1.36.65,2.74.89,4.13.54,3,.82,6.09.82,9.25v.13c0,2.74-.21,5.42-.6,8.04v.02c-.52,3.52-1.39,6.92-2.57,10.17-.73,2.02-1.57,3.98-2.52,5.88v.02h-.01c-1.29,2.55-4.44,7.31-4.45,7.33-.16.32-.31.66-.46,1-.06.11-.11.24-.17.36-.01.02-.02.04-.02.06-.16.33-.3.69-.45,1.05-.15.35-.3.73-.45,1.1-.25.62-.46,1.25-.67,1.89-1.46,4.45-2.26,9.17-2.26,14.1,0,.41,0,.82.02,1.23.01.22.02.41.02.61.11,2.75.46,5.43,1.05,8.01h0c1.06,4.74,2.86,9.18,5.28,13.22,4.94,8.27,12.45,14.83,21.44,18.58,3.69,1.54,7.63,2.61,11.75,3.12,1.87.24,3.77.35,5.71.35.38,0,.77-.01,1.15-.02,3.42-.08,6.75-.55,9.94-1.34h0c9.64-2.43,18.03-7.92,24.1-15.38,2.6-3.2,4.76-6.76,6.41-10.58,2.36-5.47,3.66-11.49,3.66-17.82,0-7.77-1.97-15.09-5.44-21.48,0-.01.02-.05.02-.09-3.07-5.82-6.47-11.44-10.18-16.83-4.94-7.2-10.45-13.98-16.44-20.3-1.97-2.08-3.99-4.12-6.07-6.09,6.69-5.33,13.85-10.14,21.39-14.32,3.83-2.11,7.75-4.09,11.77-5.88,8.96-4.02,18.38-7.22,28.15-9.49,4.15-.97,8.35-1.77,12.61-2.39,7.43-1.1,15.04-1.66,22.79-1.66,16.22,0,31.86,2.48,46.56,7.1-.25,2.91-.58,5.81-.99,8.65-6.42,44.71-32.09,83.2-68.36,106.9v-112.34c-4.27.67-8.48,1.51-12.61,2.53v131.96c4.31-2.04,8.52-4.26,12.61-6.65,42.36-24.71,72.89-67.43,81-117.62.48-2.9.87-5.83,1.18-8.78.48-4.35.78-8.75.89-13.19.05-1.61.08-3.23.08-4.85,0-1.91-.04-3.8-.1-5.69-3.66,2.83-8.2,4.61-13.13,4.88-.43.04-.88.04-1.33.04-2.03,0-4.02-.26-5.91-.74-12.78-3.11-26.14-4.76-39.89-4.76l-.02.03ZM441.56,208.38c-10.74,2.3-21.1,5.63-30.96,9.87-3.95,1.7-7.81,3.54-11.59,5.52-9.21,4.83-17.91,10.5-26,16.88-.78.61-1.56,1.24-2.33,1.87-1.86-1.54-3.75-3.02-5.69-4.46h-.01c-4.28-3.21-8.71-6.21-13.3-9-.78-.48-1.56-.95-2.36-1.41-2.29-1.35-4.61-2.64-6.97-3.88-3.78-1.99-7.65-3.82-11.6-5.52-9.86-4.24-20.22-7.57-30.96-9.87v-93.13c24.13,8.43,45.54,22.64,62.55,40.97,2.91,3.13,5.7,6.39,8.33,9.76,2.64-3.37,5.41-6.63,8.32-9.75,17.01-18.33,38.43-32.55,62.56-40.98v93.13Z"/>
  <path class="cls-16" d="M476.96,204.64c-7.72,0-15.33.53-22.79,1.54v-107.69c-4.27,1-8.48,2.16-12.61,3.5-27.37,8.75-51.66,24.33-70.89,44.7-19.22-20.39-43.52-35.96-70.89-44.71-4.13-1.33-8.34-2.49-12.61-3.49v107.69c-7.45-1.01-15.06-1.54-22.79-1.54-13.75,0-27.11,1.65-39.9,4.76-1.9.48-3.87.74-5.91.74-1.16,0-2.31-.08-3.42-.25-.36-.05-.71-.11-1.05-.19-.18-.02-.35-.06-.53-.11-1.35-.28-2.65-.68-3.9-1.2-.21-.08-.39-.16-.59-.25-.12-.05-.23-.1-.34-.16-.11-.04-.23-.1-.33-.15-.1-.05-.2-.1-.3-.16-.57-.28-1.12-.58-1.67-.91-.08-.04-.16-.09-.25-.14-.11-.07-.22-.13-.33-.22-.41-.26-.81-.53-1.2-.82-.16-.11-.3-.22-.45-.34-.18-.12-.35-.26-.52-.4-.08-.07-.17-.13-.25-.2-.47-.38-.91-.78-1.35-1.21-.11,2.46-.17,4.94-.17,7.43,0,1.91.03,3.79.1,5.68.15,4.45.46,8.85.96,13.21.32,2.96.74,5.88,1.23,8.79,8.47,50.65,39.75,93.6,82.96,117.95,4.1,2.32,8.3,4.46,12.61,6.42v-132.93c-4.14-1.03-8.34-1.87-12.61-2.53v113.7c-37.19-23.46-63.65-62.31-70.36-107.58-.43-2.87-.78-5.75-1.03-8.67,14.91-4.9,30.8-7.61,47.33-7.74.42-.01.85-.01,1.27-.01,7.74,0,15.35.56,22.79,1.66.23.04.46.07.69.11.61.08,1.23.19,1.85.28,3.39.56,6.75,1.22,10.08,1.99,9.77,2.29,19.18,5.48,28.14,9.5,1.27.56,2.53,1.15,3.8,1.76,2.24,1.07,4.44,2.21,6.62,3.39.37.2.73.4,1.1.6.04.02.07.05.1.06.05.03.12.07.16.08.17.1.34.19.51.29.77.43,1.53.86,2.29,1.31,1.29.76,2.57,1.52,3.84,2.32,3.3,2.04,6.52,4.23,9.64,6.51,1.73,1.27,3.44,2.56,5.11,3.9.45.35.89.71,1.34,1.08.04.03.06.05.1.09,1.62,1.31,3.21,2.66,4.78,4.06,1.14,1,2.26,2.02,3.36,3.07,2.08,1.93,4.11,3.95,6.08,6.01,1.96,2.05,3.87,4.16,5.73,6.33,6.47,7.58,12.23,15.77,17.16,24.5.25.44.49.89.74,1.32,0,0,0,0,.01.02,1.38,2.04,2.53,4.24,3.43,6.57.01.02.02.04.02.06,1.38,3.61,2.14,7.53,2.14,11.63,0,1.27-.07,2.51-.21,3.73v.02c-.3,2.66-.93,5.24-1.84,7.66-1.38,3.68-3.41,7.05-5.94,9.98-5.28,6.08-12.77,10.19-21.22,11.1-1.17.13-2.37.19-3.57.19-3.27,0-6.42-.47-9.41-1.37-12.66-3.79-22.09-14.98-23.23-28.53v-.02c-.08-.91-.12-1.83-.12-2.75,0-4.76,1.02-9.29,2.87-13.38.21-.47.43-.92.66-1.38.65-1.27,1.36-2.48,2.16-3.64,0,0,.01,0,.01-.02.13-.25.27-.49.39-.72,0-.02.01-.02.01-.02,2.59-4.99,4.44-10.42,5.36-16.17.04-.27.08-.53.13-.78,0,0,.01,0,.01-.01.19-1.33.34-2.66.43-4,.02-.22.04-.43.04-.65.07-1.07.1-2.13.1-3.21,0-3.71-.38-7.33-1.1-10.83-.02-.16-.07-.34-.1-.51-.05-.23-.1-.46-.16-.7-.11-.5-.23-.99-.35-1.47-.13-.49-.26-.98-.4-1.46-.07-.22-.13-.43-.2-.65-.01-.07-.03-.13-.06-.19-.33-1.11-.72-2.19-1.11-3.26-.11-.29-.22-.58-.34-.86-.93-2.33-2.02-4.56-3.27-6.7-.13-.24-.27-.47-.4-.7-1.02-1.67-2.33-3.14-3.86-4.34-.54-.43-1.1-.81-1.68-1.17-.39,1.41-.59,2.9-.59,4.43,0,2.25.43,4.4,1.24,6.36,0,.03.02.06.03.09.11.35.24.7.38,1.03.02.08.04.13.05.2,0,.02.02.02.02.04.01.06.03.13.05.19.35,1.36.65,2.74.89,4.13.54,3,.82,6.09.82,9.25v.13c0,2.74-.21,5.42-.6,8.04v.02c-.52,3.52-1.39,6.92-2.57,10.17-.73,2.02-1.57,3.98-2.52,5.88v.02h-.01c-1.29,2.55-4.44,7.31-4.45,7.33-.16.32-.31.66-.46,1-.06.11-.11.24-.17.36-.01.02-.02.04-.02.06-.16.33-.3.69-.45,1.05-.15.35-.3.73-.45,1.1-.25.62-.46,1.25-.67,1.89-1.46,4.45-2.26,9.17-2.26,14.1,0,.41,0,.82.02,1.23.01.22.02.41.02.61.11,2.75.46,5.43,1.05,8.01h0c1.06,4.74,2.86,9.18,5.28,13.22,4.94,8.27,12.45,14.83,21.44,18.58,3.69,1.54,7.63,2.61,11.75,3.12,1.87.24,3.77.35,5.71.35.38,0,.77-.01,1.15-.02,3.42-.08,6.75-.55,9.94-1.34h0c9.64-2.43,18.03-7.92,24.1-15.38,2.6-3.2,4.76-6.76,6.41-10.58,2.36-5.47,3.66-11.49,3.66-17.82,0-7.77-1.97-15.09-5.44-21.48,0-.01.02-.05.02-.09-3.07-5.82-6.47-11.44-10.18-16.83-4.94-7.2-10.45-13.98-16.44-20.3-1.97-2.08-3.99-4.12-6.07-6.09,6.69-5.33,13.85-10.14,21.39-14.32,3.83-2.11,7.75-4.09,11.77-5.88,8.96-4.02,18.38-7.22,28.15-9.49,4.15-.97,8.35-1.77,12.61-2.39,7.43-1.1,15.04-1.66,22.79-1.66,16.22,0,31.86,2.48,46.56,7.1-.25,2.91-.58,5.81-.99,8.65-6.42,44.71-32.09,83.2-68.36,106.9v-112.34c-4.27.67-8.48,1.51-12.61,2.53v131.96c4.31-2.04,8.52-4.26,12.61-6.65,42.36-24.71,72.89-67.43,81-117.62.48-2.9.87-5.83,1.18-8.78.48-4.35.78-8.75.89-13.19.05-1.61.08-3.23.08-4.85,0-1.91-.04-3.8-.1-5.69-3.66,2.83-8.2,4.61-13.13,4.88-.43.04-.88.04-1.33.04-2.03,0-4.02-.26-5.91-.74-12.78-3.11-26.14-4.76-39.89-4.76l-.02.03ZM441.56,208.38c-10.74,2.3-21.1,5.63-30.96,9.87-3.95,1.7-7.81,3.54-11.59,5.52-9.21,4.83-17.91,10.5-26,16.88-.78.61-1.56,1.24-2.33,1.87-1.86-1.54-3.75-3.02-5.69-4.46h-.01c-4.28-3.21-8.71-6.21-13.3-9-.78-.48-1.56-.95-2.36-1.41-2.29-1.35-4.61-2.64-6.97-3.88-3.78-1.99-7.65-3.82-11.6-5.52-9.86-4.24-20.22-7.57-30.96-9.87v-93.13c24.13,8.43,45.54,22.64,62.55,40.97,2.91,3.13,5.7,6.39,8.33,9.76,2.64-3.37,5.41-6.63,8.32-9.75,17.01-18.33,38.43-32.55,62.56-40.98v93.13Z"/>
  <path class="cls-1" d="M0,562.7v-70.48h8.05l25.73,49.97c.7-1.62,3.7-8.54,9.02-20.78,5.31-12.23,9.23-21.6,11.75-28.11l.4-1.09h8.94v69.98h-10.78v-54.08l-23.39,54.38h-4.77l3.23-7.43-23.49-45.41v53.04H0Z"/>
  <path class="cls-8" d="M0,562.7v-70.48h8.05l25.73,49.97c.7-1.62,3.7-8.54,9.02-20.78,5.31-12.23,9.23-21.6,11.75-28.11l.4-1.09h8.94v69.98h-10.78v-54.08l-23.39,54.38h-4.77l3.23-7.43-23.49-45.41v53.04H0Z"/>
  <path class="cls-1" d="M89.98,492.32h10.08v42.69c0,2.74.37,5.36,1.12,7.85.75,2.49,1.83,4.76,3.25,6.81,1.42,2.04,3.32,3.68,5.68,4.9,2.36,1.22,5.04,1.83,8.02,1.83s5.53-.55,7.95-1.63c3.9-1.75,6.84-4.39,8.79-7.92,1.96-3.53,2.93-7.48,2.93-11.83v-42.69h4.77v42.69c0,4.06-.64,7.91-1.94,11.54-1.92,4.89-5.04,8.85-9.34,11.89-4.31,3.04-9.32,4.56-15.05,4.56-3.81,0-7.52-.77-11.13-2.33-3.51-1.55-6.43-3.73-8.76-6.54-2.33-2.81-3.98-5.77-4.94-8.89-.96-3.12-1.44-6.43-1.44-9.93v-42.99h0Z"/>
  <path class="cls-13" d="M89.98,492.32h10.08v42.69c0,2.74.37,5.36,1.12,7.85.75,2.49,1.83,4.76,3.25,6.81,1.42,2.04,3.32,3.68,5.68,4.9,2.36,1.22,5.04,1.83,8.02,1.83s5.53-.55,7.95-1.63c3.9-1.75,6.84-4.39,8.79-7.92,1.96-3.53,2.93-7.48,2.93-11.83v-42.69h4.77v42.69c0,4.06-.64,7.91-1.94,11.54-1.92,4.89-5.04,8.85-9.34,11.89-4.31,3.04-9.32,4.56-15.05,4.56-3.81,0-7.52-.77-11.13-2.33-3.51-1.55-6.43-3.73-8.76-6.54-2.33-2.81-3.98-5.77-4.94-8.89-.96-3.12-1.44-6.43-1.44-9.93v-42.99h0Z"/>
  <path class="cls-1" d="M167.82,562.6v-70.38h6.51l37.35,51.51v-51.51h4.67v70.48h-3.98l-39.88-55.67v55.57h-4.67Z"/>
  <path class="cls-3" d="M167.82,562.6v-70.38h6.51l37.35,51.51v-51.51h4.67v70.48h-3.98l-39.88-55.67v55.57h-4.67Z"/>
  <path class="cls-1" d="M242.42,562.7v-70.48h10.28v70.48h-10.28Z"/>
  <path class="cls-23" d="M242.42,562.7v-70.48h10.28v70.48h-10.28Z"/>
  <path class="cls-1" d="M276.32,544.97l7.2-3.07.64,1.73c1.52,4.13,4.16,7.46,7.92,9.98,3.76,2.53,8.04,3.79,12.84,3.79s8.86-1.29,11.97-3.86c3.11-2.57,4.67-5.94,4.67-10.1,0-2.9-1.85-5.42-5.57-7.53-1.95-1.22-4.02-2.22-6.21-3.02-3.64-1.39-6.09-2.38-7.35-2.97-2.02-.76-3.71-1.42-5.07-1.98-1.36-.56-2.95-1.29-4.77-2.2-1.82-.91-3.34-1.84-4.54-2.8-1.21-.96-2.38-2.06-3.5-3.29-1.12-1.24-1.97-2.63-2.53-4.19-.57-1.55-.84-3.22-.84-5,0-3.63,1.01-6.87,3.03-9.74,2.02-2.86,4.7-5.03,8.05-6.51,3.34-1.49,7.02-2.23,11.03-2.23,4.93,0,9.35,1.15,13.23,3.44,3.89,2.3,6.6,5.46,8.12,9.48l.5,1.29-7,3.66-.84-1.73c-1.52-3.3-3.78-5.99-6.78-8.05-2.99-2.06-6.36-3.1-10.1-3.1-3.38,0-6.22.86-8.52,2.57-2.3,1.71-3.45,3.96-3.45,6.74,0,1.45.35,2.81,1.07,4.06.71,1.25,1.44,2.28,2.18,3.07.75.79,2.14,1.7,4.2,2.72,2.05,1.03,3.58,1.74,4.6,2.15,1.01.41,2.95,1.16,5.84,2.26.5.2.88.35,1.14.44,5.89,2.21,10.06,4.04,12.52,5.5,5.83,3.53,8.74,8.03,8.74,13.47,0,6.57-2.42,11.94-7.28,16.09-4.85,4.16-11,6.24-18.45,6.24-6.06,0-11.49-1.43-16.29-4.31-4.8-2.87-8.1-6.82-9.88-11.84l-.5-1.19h-.01Z"/>
  <path class="cls-4" d="M276.32,544.97l7.2-3.07.64,1.73c1.52,4.13,4.16,7.46,7.92,9.98,3.76,2.53,8.04,3.79,12.84,3.79s8.86-1.29,11.97-3.86c3.11-2.57,4.67-5.94,4.67-10.1,0-2.9-1.85-5.42-5.57-7.53-1.95-1.22-4.02-2.22-6.21-3.02-3.64-1.39-6.09-2.38-7.35-2.97-2.02-.76-3.71-1.42-5.07-1.98-1.36-.56-2.95-1.29-4.77-2.2-1.82-.91-3.34-1.84-4.54-2.8-1.21-.96-2.38-2.06-3.5-3.29-1.12-1.24-1.97-2.63-2.53-4.19-.57-1.55-.84-3.22-.84-5,0-3.63,1.01-6.87,3.03-9.74,2.02-2.86,4.7-5.03,8.05-6.51,3.34-1.49,7.02-2.23,11.03-2.23,4.93,0,9.35,1.15,13.23,3.44,3.89,2.3,6.6,5.46,8.12,9.48l.5,1.29-7,3.66-.84-1.73c-1.52-3.3-3.78-5.99-6.78-8.05-2.99-2.06-6.36-3.1-10.1-3.1-3.38,0-6.22.86-8.52,2.57-2.3,1.71-3.45,3.96-3.45,6.74,0,1.45.35,2.81,1.07,4.06.71,1.25,1.44,2.28,2.18,3.07.75.79,2.14,1.7,4.2,2.72,2.05,1.03,3.58,1.74,4.6,2.15,1.01.41,2.95,1.16,5.84,2.26.5.2.88.35,1.14.44,5.89,2.21,10.06,4.04,12.52,5.5,5.83,3.53,8.74,8.03,8.74,13.47,0,6.57-2.42,11.94-7.28,16.09-4.85,4.16-11,6.24-18.45,6.24-6.06,0-11.49-1.43-16.29-4.31-4.8-2.87-8.1-6.82-9.88-11.84l-.5-1.19h-.01Z"/>
  <path class="cls-1" d="M380.95,492.32h10.08v42.69c0,2.74.37,5.36,1.12,7.85s1.83,4.76,3.25,6.81c1.43,2.04,3.32,3.68,5.68,4.9,2.37,1.22,5.04,1.83,8.02,1.83s5.53-.55,7.95-1.63c3.9-1.75,6.84-4.39,8.79-7.92,1.96-3.53,2.93-7.48,2.93-11.83v-42.69h4.77v42.69c0,4.06-.64,7.91-1.94,11.54-1.92,4.89-5.04,8.85-9.34,11.89-4.31,3.04-9.32,4.56-15.05,4.56-3.81,0-7.52-.77-11.13-2.33-3.51-1.55-6.43-3.73-8.76-6.54-2.33-2.81-3.98-5.77-4.95-8.89-.96-3.12-1.44-6.43-1.44-9.93v-42.99h0Z"/>
  <path class="cls-15" d="M380.95,492.32h10.08v42.69c0,2.74.37,5.36,1.12,7.85s1.83,4.76,3.25,6.81c1.43,2.04,3.32,3.68,5.68,4.9,2.37,1.22,5.04,1.83,8.02,1.83s5.53-.55,7.95-1.63c3.9-1.75,6.84-4.39,8.79-7.92,1.96-3.53,2.93-7.48,2.93-11.83v-42.69h4.77v42.69c0,4.06-.64,7.91-1.94,11.54-1.92,4.89-5.04,8.85-9.34,11.89-4.31,3.04-9.32,4.56-15.05,4.56-3.81,0-7.52-.77-11.13-2.33-3.51-1.55-6.43-3.73-8.76-6.54-2.33-2.81-3.98-5.77-4.95-8.89-.96-3.12-1.44-6.43-1.44-9.93v-42.99h0Z"/>
  <path class="cls-1" d="M454.44,544.97l7.2-3.07.64,1.73c1.52,4.13,4.16,7.46,7.92,9.98,3.76,2.53,8.04,3.79,12.84,3.79s8.86-1.29,11.97-3.86c3.11-2.57,4.67-5.94,4.67-10.1,0-2.9-1.85-5.42-5.57-7.53-1.95-1.22-4.02-2.22-6.21-3.02-3.65-1.39-6.09-2.38-7.35-2.97-2.02-.76-3.71-1.42-5.07-1.98-1.36-.56-2.95-1.29-4.77-2.2-1.82-.91-3.34-1.84-4.55-2.8-1.21-.96-2.38-2.06-3.5-3.29-1.12-1.24-1.97-2.63-2.53-4.19-.57-1.55-.84-3.22-.84-5,0-3.63,1.01-6.87,3.03-9.74,2.02-2.86,4.7-5.03,8.05-6.51,3.34-1.49,7.02-2.23,11.03-2.23,4.93,0,9.35,1.15,13.23,3.44,3.89,2.3,6.6,5.46,8.12,9.48l.5,1.29-7,3.66-.84-1.73c-1.52-3.3-3.78-5.99-6.78-8.05-3-2.06-6.36-3.1-10.11-3.1-3.38,0-6.22.86-8.52,2.57-2.3,1.71-3.45,3.96-3.45,6.74,0,1.45.36,2.81,1.07,4.06.71,1.25,1.44,2.28,2.18,3.07.75.79,2.14,1.7,4.2,2.72,2.05,1.03,3.59,1.74,4.6,2.15,1.01.41,2.95,1.16,5.83,2.26.5.2.88.35,1.14.44,5.9,2.21,10.06,4.04,12.52,5.5,5.83,3.53,8.74,8.03,8.74,13.47,0,6.57-2.42,11.94-7.28,16.09-4.85,4.16-11,6.24-18.45,6.24-6.06,0-11.49-1.43-16.29-4.31-4.8-2.87-8.1-6.82-9.88-11.84l-.5-1.19Z"/>
  <path class="cls-6" d="M454.44,544.97l7.2-3.07.64,1.73c1.52,4.13,4.16,7.46,7.92,9.98,3.76,2.53,8.04,3.79,12.84,3.79s8.86-1.29,11.97-3.86c3.11-2.57,4.67-5.94,4.67-10.1,0-2.9-1.85-5.42-5.57-7.53-1.95-1.22-4.02-2.22-6.21-3.02-3.65-1.39-6.09-2.38-7.35-2.97-2.02-.76-3.71-1.42-5.07-1.98-1.36-.56-2.95-1.29-4.77-2.2-1.82-.91-3.34-1.84-4.55-2.8-1.21-.96-2.38-2.06-3.5-3.29-1.12-1.24-1.97-2.63-2.53-4.19-.57-1.55-.84-3.22-.84-5,0-3.63,1.01-6.87,3.03-9.74,2.02-2.86,4.7-5.03,8.05-6.51,3.34-1.49,7.02-2.23,11.03-2.23,4.93,0,9.35,1.15,13.23,3.44,3.89,2.3,6.6,5.46,8.12,9.48l.5,1.29-7,3.66-.84-1.73c-1.52-3.3-3.78-5.99-6.78-8.05-3-2.06-6.36-3.1-10.11-3.1-3.38,0-6.22.86-8.52,2.57-2.3,1.71-3.45,3.96-3.45,6.74,0,1.45.36,2.81,1.07,4.06.71,1.25,1.44,2.28,2.18,3.07.75.79,2.14,1.7,4.2,2.72,2.05,1.03,3.59,1.74,4.6,2.15,1.01.41,2.95,1.16,5.83,2.26.5.2.88.35,1.14.44,5.9,2.21,10.06,4.04,12.52,5.5,5.83,3.53,8.74,8.03,8.74,13.47,0,6.57-2.42,11.94-7.28,16.09-4.85,4.16-11,6.24-18.45,6.24-6.06,0-11.49-1.43-16.29-4.31-4.8-2.87-8.1-6.82-9.88-11.84l-.5-1.19Z"/>
  <path class="cls-1" d="M529.64,562.7v-70.48h8.05l25.73,49.97c.7-1.62,3.7-8.54,9.02-20.78,5.31-12.23,9.23-21.6,11.75-28.11l.4-1.09h8.94v69.98h-10.78v-54.08l-23.39,54.38h-4.77l3.23-7.43-23.5-45.41v53.04h-4.67Z"/>
  <path class="cls-14" d="M529.64,562.7v-70.48h8.05l25.73,49.97c.7-1.62,3.7-8.54,9.02-20.78,5.31-12.23,9.23-21.6,11.75-28.11l.4-1.09h8.94v69.98h-10.78v-54.08l-23.39,54.38h-4.77l3.23-7.43-23.5-45.41v53.04h-4.67Z"/>
  <path class="cls-1" d="M620.25,562.7h-4.87l26.67-74.44,1.69,4.65c8.84,23.9,17.08,46.42,24.73,67.55l.79,2.03h-10.98l-.4-1.04c-.3-.79-.78-2.1-1.44-3.91-.57-1.75-.99-2.87-1.29-3.37-.04-.16-.28-.48-.75-.94-.13-.1-.27-.2-.42-.3-.15-.1-.33-.22-.55-.35-.22-.13-.39-.25-.52-.35-1.62-1.25-4.04-2.64-7.25-4.16-3.94-1.78-6.44-2.97-7.5-3.57-4.11-2.28-6.89-5.09-8.34-8.42l-9.59,26.6h0ZM651.99,545.36l-13.01-34.91c-.23.76-.66,1.99-1.29,3.69-.63,1.7-1.08,2.95-1.34,3.74-1.79,4.89-2.7,7.38-2.73,7.48l-.84,2.43c-.07.1-.13.22-.17.37-.05.15-.09.24-.13.27.03,2.94.66,5.34,1.86,7.2,1.21,1.87,2.95,3.44,5.24,4.73,1.76,1.03,4.24,2.11,7.45,3.27.63.2,1.53.51,2.71.94,1.17.43,1.93.7,2.26.79h0Z"/>
  <path class="cls-12" d="M620.25,562.7h-4.87l26.67-74.44,1.69,4.65c8.84,23.9,17.08,46.42,24.73,67.55l.79,2.03h-10.98l-.4-1.04c-.3-.79-.78-2.1-1.44-3.91-.57-1.75-.99-2.87-1.29-3.37-.04-.16-.28-.48-.75-.94-.13-.1-.27-.2-.42-.3-.15-.1-.33-.22-.55-.35-.22-.13-.39-.25-.52-.35-1.62-1.25-4.04-2.64-7.25-4.16-3.94-1.78-6.44-2.97-7.5-3.57-4.11-2.28-6.89-5.09-8.34-8.42l-9.59,26.6h0ZM651.99,545.36l-13.01-34.91c-.23.76-.66,1.99-1.29,3.69-.63,1.7-1.08,2.95-1.34,3.74-1.79,4.89-2.7,7.38-2.73,7.48l-.84,2.43c-.07.1-.13.22-.17.37-.05.15-.09.24-.13.27.03,2.94.66,5.34,1.86,7.2,1.21,1.87,2.95,3.44,5.24,4.73,1.76,1.03,4.24,2.11,7.45,3.27.63.2,1.53.51,2.71.94,1.17.43,1.93.7,2.26.79h0Z"/>
  <path class="cls-1" d="M690.47,562.6v-70.38h6.51l37.35,51.51v-51.51h4.67v70.48h-3.98l-39.88-55.67v55.57h-4.67Z"/>
  <path class="cls-22" d="M690.47,562.6v-70.38h6.51l37.35,51.51v-51.51h4.67v70.48h-3.98l-39.88-55.67v55.57h-4.67Z"/>
</svg>