<?xml version="1.0" encoding="UTF-8"?>
<svg id="Layer_1" data-name="Layer 1" xmlns="http://www.w3.org/2000/svg" viewBox="0 0 739 563">
  <defs>
    <style>
      .cls-1 {
        fill: #fff;
        stroke-width: 0px;
      }
    </style>
  </defs>
  <g>
    <path class="cls-1" d="M530.08,111.3c-3.2-5.16-6.65-10.15-10.34-14.96h0c-34.5-45.13-88.91-74.24-150.11-74.24s-115.93,29.28-150.41,74.64c-3.72,4.89-7.21,9.96-10.43,15.21-17.77,28.79-28.01,62.7-28.01,99.01,0,5.37.23,10.69.66,15.94.39,4.6.94,9.16,1.65,13.67.47,3.05,1.02,6.07,1.65,9.07,13.79,66.29,62.35,119.85,125.76,140.73,4.31,1.42,8.69,2.7,13.15,3.8.98.26,1.97.49,2.97.72h0c1.98.46,3.97.89,5.98,1.28h0c4.01.81,8.07,1.48,12.16,2.01,8.14,1.07,16.44,1.63,24.87,1.63,9.03,0,17.92-.63,26.62-1.87h0c4.23-.59,8.43-1.33,12.57-2.21,1.78-.37,3.55-.76,5.31-1.2,1.23-.29,2.44-.59,3.66-.91,4.45-1.17,8.84-2.5,13.15-3.98,62.72-21.52,110.52-75.11,123.83-141.2.6-2.99,1.13-6.01,1.59-9.06.68-4.5,1.2-9.03,1.55-13.63.39-4.89.58-9.82.58-14.81,0-36.57-10.4-70.73-28.4-99.66h0ZM376.4,43.97c.05.37.08.77.08,1.18,0,.39-.03.77-.08,1.14l-.38-.37-1.68-1.67-1.26-1.25-.59.87-1.28,1.86-.39.57h0s-.15.22-.15.22l-.15-.22h0s-.4-.58-.4-.58h0s-1.28-1.88-1.28-1.88h0l-.58-.84-.85.85h0l-.4.39h0s-1.68,1.68-1.68,1.68l-.37.37c-.06-.37-.09-.75-.09-1.14,0-.43.03-.85.1-1.26,0-.05.01-.1.02-.14v-.04c0-2.17.91-4.12,2.37-5.49.13-.14.27-.27.43-.39.11-.08.22-.17.33-.24h0c.34-.25.7-.47,1.09-.66.33-.16.68-.31,1.04-.42.14-.05.28-.09.43-.12.15.04.3.08.44.14.35.11.69.25,1.03.41.37.19.74.4,1.08.66.12.07.23.15.34.24.14.12.27.24.42.37h.01c1.46,1.38,2.37,3.33,2.37,5.5v.04c0,.07.02.15.04.23ZM374.28,96.78c0,1-.14,1.97-.39,2.89h0s-.18.71-.18.71l-.51,2.06-.59,2.32-.33,1.31-.12.52-1.49,5.91h0l-1.48-5.92-.12-.51-.33-1.31-.59-2.32-.52-2.07h0l-.17-.69c-.26-.93-.4-1.9-.4-2.91,0-1.11.17-2.18.47-3.18-1,1.32-2.3,2.41-3.8,3.15-.74.37-1.52.66-2.35.85-.43.1-.87.18-1.32.23-.02.02-.06.05-.08.07,0-.02,0-.05,0-.06-.05-.26-.09-.5-.12-.77-.05-.42-.08-.85-.08-1.28,0-1,.14-1.97.4-2.9t0-.02c.09-.27.18-.53.25-.81t0-.01c.18-.52.41-1,.66-1.47,1.04-1.9,2.63-3.47,4.55-4.47.62-.31,1.27-.58,1.94-.77.63-.2,1.29-.32,1.97-.39.36-.05.73-.06,1.1-.06s.74.01,1.1.06c.68.07,1.34.19,1.97.39.67.19,1.32.45,1.93.77,1.93,1,3.52,2.56,4.56,4.45.26.48.47.97.67,1.49t0,.01c.08.26.17.5.24.76,0,.02.02.05.02.07.26.93.4,1.9.4,2.9,0,.43-.03.85-.08,1.27-.02.25-.07.52-.12.77,0,.02,0,.04,0,.07-.04-.02-.06-.05-.09-.08-.44-.05-.89-.12-1.32-.23-.82-.19-1.61-.48-2.34-.85-1.51-.75-2.82-1.84-3.83-3.17.32,1.01.49,2.09.49,3.2ZM551.53,222.39c-.28,4.52-.73,9.01-1.34,13.46-.4,3.01-.89,6-1.45,8.97-11.99,63.84-57.3,115.96-117.18,137.58-4.24,1.54-8.55,2.92-12.93,4.13-2.91.81-5.85,1.55-8.82,2.22-1.2.27-2.41.53-3.62.77-5.78,1.18-11.64,2.08-17.59,2.7-6.24.65-12.57.97-18.97.97-5.76,0-11.48-.26-17.1-.79-6.04-.56-11.99-1.42-17.84-2.56h0c-1.03-.2-2.05-.4-3.08-.63-2.97-.62-5.91-1.33-8.82-2.11-4.38-1.16-8.69-2.47-12.93-3.96-60.59-21.02-106.66-73.14-119.11-137.25-.58-2.97-1.09-5.97-1.52-8.98-.63-4.45-1.1-8.95-1.42-13.5-.27-4.12-.42-8.27-.42-12.46,0-37.44,11.29-72.24,30.66-101.19,3.34-4.99,6.92-9.81,10.73-14.44.47-.58.95-1.15,1.44-1.73.32-.39.65-.77.97-1.15.95-1.12,1.93-2.23,2.92-3.32.37-.42.75-.84,1.14-1.25.46-.51.92-1.01,1.39-1.52.71-.75,1.41-1.48,2.12-2.21.46-.47.93-.97,1.41-1.44,1.22-1.23,2.46-2.45,3.71-3.63.59-.58,1.19-1.14,1.79-1.7,1.13-1.03,2.26-2.06,3.4-3.08.56-.49,1.11-.98,1.68-1.46.77-.66,1.55-1.32,2.33-1.97.63-.53,1.26-1.05,1.9-1.57.58-.47,1.15-.93,1.73-1.38,2.69-2.13,5.44-4.19,8.26-6.16,1.23-.87,2.47-1.72,3.72-2.55.63-.41,1.26-.84,1.89-1.24.63-.41,1.27-.82,1.9-1.22.64-.4,1.28-.8,1.92-1.2.63-.39,1.28-.77,1.93-1.16.65-.4,1.3-.78,1.95-1.15,1.3-.76,2.62-1.51,3.95-2.23,1.32-.73,2.66-1.44,4-2.13.67-.34,1.35-.69,2.03-1.02.85-.43,1.7-.84,2.55-1.25,1.92-.94,3.85-1.83,5.81-2.68.66-.28,1.32-.57,1.97-.85,1.4-.59,2.82-1.17,4.23-1.71.62-.25,1.24-.5,1.87-.73,3.74-1.44,7.54-2.75,11.41-3.93.64-.2,1.29-.39,1.93-.58,1.48-.45,2.96-.85,4.45-1.26,1.49-.4,2.99-.78,4.5-1.14,1.51-.37,3.02-.71,4.54-1.03,3.04-.65,6.12-1.22,9.21-1.71.87-.14,1.74-.28,2.61-.4,1.75-.26,3.5-.49,5.26-.69.88-.1,1.76-.2,2.64-.27,1.19-.12,2.37-.23,3.55-.33h.04s.06-.01.09-.01c.08,0,.17-.02.26-.02.15-.01.31-.03.47-.04h.1s.09,0,.14,0c.27-.02.54-.02.81-.02,3.21,0,6.24.85,8.85,2.35,1.56.88,2.98,1.99,4.19,3.31.09.09.18.2.27.28.17.2.34.39.5.58-.49.26-1.04.4-1.63.4h-.09c-.33,0-.65-.07-.95-.15,0,0-.02-.01-.03-.01-.24-.07-.47-.18-.68-.3,0,0,0,0-.01,0-.72-.27-1.49-.42-2.31-.42-2.7,0-5.02,1.64-6.03,3.97,1.27-1.5,3.17-2.45,5.28-2.45.48,0,.95.05,1.4.14h.01c.71.14,1.39.4,2,.75-3.17.59-5.65,3.15-6.13,6.36-.02.21-.05.43-.05.65-.01.15-.02.31-.02.47,0,.85.14,1.68.41,2.46.23.65.53,1.28.93,1.84l.02.02.62,1.13,3.53,6.43,1.85,3.37,1.74,3.18v10.88s-.02,0-.06-.02c-.83-.26-1.68-.45-2.56-.56-.57-.07-1.16-.11-1.74-.11-2.92,0-5.65.87-7.92,2.37-1.33.86-2.49,1.95-3.46,3.18-1.2,1.52-2.09,3.29-2.59,5.23,0,0,0,0-.01.02-.08.61-.2,1.21-.34,1.81-.47,2.15-1.25,4.18-2.28,6.07-1.26,2.32-2.91,4.42-4.83,6.2-2.21,2.03-4.8,3.65-7.66,4.75,2.05.55,4.2.84,6.42.84,1.71,0,3.37-.17,4.98-.5-.24.82-.36,1.7-.36,2.59,0,5.27,4.28,9.55,9.55,9.55.91,0,1.8-.13,2.64-.38h.02c.09,2.62,1.16,4.99,2.82,6.79.24.25.49.49.75.73.02,0,.02.02.03.02.2.17.39.33.58.47,0,0,.02,0,.02.02.2.14.41.28.62.42.21.14.44.27.66.39.21.11.42.22.63.32.04.02.07.04.1.04.22.1.44.2.67.28.18.07.36.12.55.17.14.05.28.09.43.13.17.04.34.08.5.11.18.04.36.07.55.09.17.04.33.05.51.07.18.03.35.04.53.04.18.01.36.02.54.02h.02c.18,0,.35,0,.53-.02.18,0,.35-.01.53-.04.18-.02.35-.03.53-.07.18-.02.35-.05.52-.09.34-.07.68-.15,1-.26.17-.04.34-.1.5-.16.17-.07.34-.14.51-.21.14-.05.28-.12.43-.19.31-.14.6-.31.9-.49.14-.08.28-.18.42-.27.14-.08.28-.18.42-.3.12-.09.24-.18.36-.28.02,0,.04-.02.05-.04.39-.31.75-.65,1.08-1.03.11-.12.22-.25.33-.37.21-.26.42-.54.6-.81.09-.14.18-.28.27-.43.18-.3.34-.59.49-.9.22-.46.4-.94.56-1.42.1-.33.18-.67.26-1,.03-.18.06-.34.09-.52.06-.4.09-.81.11-1.22,0,0,0,.01.02.01.84.24,1.73.37,2.64.37,5.27,0,9.54-4.28,9.54-9.55,0-.9-.12-1.77-.36-2.59,1.61.34,3.28.5,4.99.5,2.23,0,4.39-.29,6.45-.84-2.86-1.09-5.46-2.72-7.69-4.76-1.93-1.79-3.57-3.88-4.85-6.21h0c-1.02-1.89-1.8-3.94-2.28-6.09h0c-.14-.56-.24-1.13-.33-1.7,0-.02,0-.03,0-.04-.49-1.95-1.39-3.74-2.6-5.28-.97-1.24-2.13-2.32-3.45-3.18-2.27-1.5-4.99-2.37-7.92-2.37-.59,0-1.17.04-1.74.11-.91.11-1.78.31-2.63.58v-10.88l1.74-3.18,1.83-3.32,3.56-6.48.62-1.13.02-.02c.39-.56.69-1.17.92-1.83.27-.78.42-1.61.42-2.47,0-.17-.01-.32-.02-.47-.01-.17-.02-.36-.05-.53-.43-3.27-2.93-5.89-6.13-6.48.61-.35,1.29-.61,2-.75h0c.45-.09.93-.14,1.4-.14,2.12,0,4.02.95,5.29,2.45-1.01-2.33-3.33-3.97-6.03-3.97-.79,0-1.56.14-2.27.4,0,0-.02,0-.03.02-.23.12-.47.24-.72.32h0c-.3.09-.62.15-.95.15h-.09c-.59,0-1.14-.14-1.63-.39.18-.21.35-.42.53-.62.04-.04.07-.08.1-.11.04-.05.09-.1.14-.14,1.22-1.32,2.63-2.43,4.19-3.31,2.35-1.35,5.04-2.18,7.9-2.33.31-.02.63-.02.96-.02,1.45,0,2.86.17,4.21.49,48.79,5.12,91.84,29.48,121.43,65.35,3.77,4.57,7.31,9.32,10.63,14.24,19.55,29.04,30.96,64.01,30.96,101.65,0,3.84-.12,7.66-.35,11.44Z"/>
    <path class="cls-1" d="M354.71,306.93l-.09.16c-.05.08-.09.16-.12.23-1.86,3.28-2.81,7.03-2.75,10.82.05,3.14.78,6.15,2.15,8.96,1.46,3.02,3.67,5.68,6.36,7.7,2.92,2.21,6.38,3.62,10,4.09,1.04.13,2.09.19,3.13.17,1.36-.02,2.72-.17,4.04-.45,9.84-2.07,16.9-10.8,16.9-20.84,0-.12,0-.24,0-.36-.02-1.44-.19-2.86-.49-4.19-.08-.43-.19-.85-.3-1.22-1.4-5.52-3.34-10.95-5.79-16.15-5.98-12.75-14.99-24.13-26.05-32.91h-.01s-1.92-1.53-1.92-1.53l.59,2.36s0,.01,0,.02h0c1.07,4.34,1.65,8.84,1.73,13.39.1,6.1-.72,12.15-2.45,17.98-1.2,4.05-2.86,8.01-4.93,11.77ZM363.77,277.16c-.04-2.66-.27-5.31-.65-7.92,2.09,4.89,3.24,10.16,3.33,15.53.08,4.86-.68,9.63-2.25,14.18-.15.44.08.91.52,1.07.09.03.2.05.29.05.34,0,.66-.23.78-.56,1.64-4.74,2.43-9.71,2.34-14.76-.07-4.47-.87-8.88-2.3-13.08,3.48,6.22,5.4,13.24,5.53,20.45.03,1.73-.06,3.55-.25,5.4-.05.46.28.87.74.92.47.07.88-.28.93-.74.21-1.92.3-3.81.26-5.61-.1-6.2-1.49-12.27-4.02-17.85,4.73,7.22,7.73,15.5,8.68,24.17.05.43.42.75.85.75.02,0,.05,0,.08,0,.46-.05.79-.46.74-.93-.98-9-4.12-17.59-9.06-25.07,6.49,6.92,11.91,14.85,15.93,23.41,2.4,5.1,4.31,10.43,5.69,15.88.11.36.2.72.28,1.12.28,1.24.43,2.54.45,3.87.16,9.39-6.38,17.6-15.56,19.53-2.15.46-4.42.54-6.62.26-3.33-.44-6.52-1.74-9.21-3.77-2.48-1.87-4.51-4.32-5.87-7.1-1.26-2.59-1.93-5.36-1.97-8.26-.06-3.5.81-6.94,2.53-9.98l.23-.39c2.13-3.86,3.84-7.94,5.07-12.1,1.78-5.99,2.62-12.21,2.51-18.47Z"/>
    <path class="cls-1" d="M358.17,319.35c.74-.01,1.32-.62,1.31-1.35-.01-.73-.62-1.31-1.35-1.3-.73.01-1.31.62-1.3,1.35.01.73.62,1.31,1.35,1.3Z"/>
    <path class="cls-1" d="M372.1,304.03c.2.12.44.19.7.19.74-.01,1.32-.62,1.31-1.35-.01-.73-.62-1.31-1.35-1.3-.18,0-.34.04-.49.1-.48.21-.82.69-.81,1.25,0,.48.27.89.65,1.12Z"/>
    <path class="cls-1" d="M363.28,308.35c.51-.53.5-1.37-.03-1.88-.53-.51-1.37-.5-1.88.03-.51.53-.5,1.37.03,1.88.53.51,1.37.5,1.88-.03Z"/>
    <path class="cls-1" d="M361.73,327.55c-.51.53-.5,1.37.03,1.88.53.51,1.37.5,1.88-.03.51-.53.5-1.37-.03-1.88-.53-.5-1.37-.49-1.88.03Z"/>
    <path class="cls-1" d="M373.76,331.42c-.15-.06-.32-.09-.5-.08-.73.01-1.31.62-1.3,1.35,0,.49.28.92.69,1.14.19.11.42.17.66.16.74-.01,1.32-.62,1.31-1.35,0-.56-.36-1.03-.86-1.23Z"/>
    <path class="cls-1" d="M365.62,326.22c2.11,1.84,4.82,2.84,7.6,2.79.53-.01,1.09-.06,1.64-.15,5.4-.88,9.41-5.63,9.41-11.08v-.19c-.07-3.87-2.08-7.38-5.38-9.39-1.82-1.11-3.91-1.68-6.06-1.65-.36,0-.7.03-1.04.07-5.8.63-10.09,5.52-10,11.36.05,3.15,1.45,6.16,3.83,8.26ZM371.55,308.44c.44-.07.87-.11,1.32-.12,2.21-.04,4.26.68,5.9,1.93,2.22,1.7,3.68,4.36,3.73,7.37.07,4.42-2.9,8.18-6.98,9.29-.74.2-1.52.31-2.32.33-2.61.04-4.98-.97-6.73-2.65-1.74-1.69-2.84-4.03-2.88-6.65-.08-4.77,3.39-8.78,7.96-9.5Z"/>
    <path class="cls-1" d="M382.79,327.2c-.51.53-.5,1.37.03,1.88.52.51,1.37.5,1.87-.03.51-.53.5-1.37-.03-1.88-.52-.5-1.37-.49-1.87.03Z"/>
    <path class="cls-1" d="M384.33,307.99c.51-.53.5-1.37-.03-1.88-.52-.51-1.37-.5-1.87.03-.51.53-.5,1.37.03,1.88.52.51,1.37.5,1.87-.03Z"/>
    <path class="cls-1" d="M387.95,318.84c.73-.01,1.31-.62,1.3-1.35-.01-.73-.62-1.31-1.35-1.3-.74.01-1.31.62-1.3,1.35.01.73.61,1.31,1.35,1.3Z"/>
    <path class="cls-1" d="M367.4,318.48l4.63-.08-3.22,3.33c-.16.16-.15.43,0,.6.17.16.44.15.59-.01l3.22-3.33.08,4.63c0,.23.2.42.43.41.23,0,.42-.2.41-.43l-.08-4.63,3.33,3.22s.07.05.1.06c.16.08.36.06.49-.08.08-.09.12-.19.12-.3,0-.11-.05-.22-.13-.29l-.25-.24-3.08-2.98,4.63-.08c.23,0,.42-.2.41-.43,0-.23-.19-.42-.43-.41l-4.63.08,3.22-3.33c.16-.17.16-.44,0-.59-.09-.08-.2-.12-.3-.12-.1,0-.21.05-.29.13l-3.22,3.33-.08-4.63c0-.23-.19-.42-.43-.41-.23,0-.42.19-.41.43l.08,4.63-2.41-2.33-.92-.89c-.16-.16-.43-.16-.6,0-.16.16-.15.43.01.6l1.24,1.2,2.09,2.02-4.63.08c-.23,0-.42.19-.41.43,0,.23.2.42.43.41Z"/>
    <path class="cls-1" d="M369.5.15C253.07.15,158.69,94.52,158.69,210.96s94.39,210.8,210.82,210.8,210.81-94.37,210.81-210.8S485.93.15,369.5.15ZM566.23,245.88c-.55,3.1-1.16,6.17-1.85,9.22-15.71,69.57-67.75,125.37-135.13,146.43-.04.25-.09.51-.14.76-.32-.13-.63-.29-.95-.43-4.1,1.26-8.24,2.38-12.45,3.37-1.97.47-3.94.91-5.94,1.32-1.09.23-2.19.44-3.29.64-11.93,2.22-24.22,3.38-36.79,3.38-11.84,0-23.44-1.03-34.71-3.01-1.31-.23-2.61-.47-3.9-.72-1.78-.35-3.56-.72-5.31-1.12-4.52-1.01-8.97-2.18-13.36-3.5-.05.03-.1.05-.16.08l-.02-.12c-67.99-20.41-120.73-76.07-136.95-145.77-.72-3.05-1.35-6.13-1.92-9.25-.85-4.58-1.52-9.23-2.05-13.92-.81-7.32-1.23-14.74-1.23-22.28,0-34.02,8.52-66.05,23.54-94.08,3.02-5.68,6.33-11.17,9.9-16.51C239.27,46.69,300.35,11.35,369.68,11.35s129.89,35.06,165.73,88.34c3.53,5.25,6.81,10.66,9.84,16.25,15.32,28.25,24.02,60.61,24.02,95.01,0,7.1-.37,14.12-1.1,21.04-.49,4.67-1.14,9.31-1.95,13.89Z"/>
    <path class="cls-1" d="M476.6,204.69c-7.7,0-15.28.53-22.71,1.54v-107.63c-4.26,1-8.45,2.16-12.57,3.49-27.27,8.74-51.48,24.32-70.65,44.68-19.16-20.38-43.38-35.94-70.65-44.69-4.12-1.33-8.31-2.49-12.57-3.49v107.63c-7.43-1.01-15.01-1.54-22.71-1.54-13.71,0-27.02,1.65-39.77,4.76-1.89.48-3.85.74-5.89.74-1.16,0-2.3-.08-3.41-.24-.36-.05-.71-.11-1.05-.18-.18-.02-.35-.06-.53-.11-1.34-.28-2.64-.68-3.89-1.2-.2-.08-.39-.16-.59-.24-.12-.05-.23-.1-.34-.16-.11-.04-.23-.09-.33-.15-.1-.05-.2-.09-.3-.15-.56-.28-1.11-.58-1.66-.91-.08-.04-.16-.09-.24-.14-.11-.07-.22-.13-.33-.21-.41-.26-.81-.53-1.2-.81-.15-.11-.3-.22-.44-.34-.18-.12-.35-.26-.52-.4-.08-.07-.17-.13-.24-.2-.47-.39-.91-.78-1.35-1.2-.11,2.46-.17,4.93-.17,7.43,0,1.9.03,3.79.1,5.68.14,4.45.46,8.85.95,13.21.33,2.96.74,5.88,1.22,8.79,8.44,50.62,39.62,93.55,82.68,117.89,4.08,2.31,8.27,4.46,12.57,6.42v-132.86c-4.13-1.03-8.31-1.87-12.57-2.53v113.64c-37.07-23.45-63.44-62.28-70.12-107.53-.43-2.86-.77-5.75-1.03-8.66,14.86-4.89,30.7-7.61,47.17-7.73.42-.01.85-.01,1.27-.01,7.72,0,15.3.56,22.71,1.66.23.04.46.07.69.11.61.08,1.22.18,1.84.28,3.38.56,6.73,1.22,10.04,1.99,9.74,2.28,19.11,5.47,28.05,9.5,1.27.56,2.53,1.15,3.78,1.76,2.23,1.07,4.42,2.21,6.59,3.39h0c.37.2.73.4,1.1.6.04.02.07.05.1.06.05.03.11.07.16.08.17.09.34.19.51.29.77.43,1.52.87,2.28,1.3,1.29.75,2.56,1.52,3.83,2.32,3.29,2.05,6.49,4.23,9.6,6.51,1.73,1.26,3.43,2.56,5.09,3.9.44.35.89.71,1.33,1.08.04.03.06.05.09.09,1.61,1.31,3.2,2.66,4.76,4.06,1.13,1,2.25,2.02,3.34,3.07,2.07,1.93,4.1,3.94,6.06,6.01,1.96,2.05,3.86,4.16,5.71,6.33,6.45,7.57,12.19,15.76,17.1,24.49.25.44.49.89.74,1.32t.01.02c1.37,2.04,2.52,4.24,3.42,6.57.01.02.02.04.02.06,1.38,3.61,2.13,7.53,2.13,11.62,0,1.26-.07,2.51-.21,3.73,0,0,0,.02,0,.02-.3,2.66-.93,5.23-1.83,7.66-1.38,3.68-3.4,7.05-5.92,9.97-5.27,6.07-12.72,10.18-21.14,11.1-1.17.12-2.36.19-3.56.19-3.26,0-6.4-.47-9.38-1.36-12.61-3.78-22.01-14.97-23.15-28.52v-.02c-.08-.91-.12-1.83-.12-2.75,0-4.76,1.02-9.29,2.86-13.37.21-.47.43-.92.66-1.38.65-1.27,1.36-2.47,2.15-3.64,0,0,.01,0,.01-.02.13-.24.27-.49.39-.72,0-.02.01-.02.01-.02,2.59-4.98,4.42-10.41,5.34-16.15.04-.27.08-.53.12-.78,0,0,.01,0,.01-.01.19-1.32.34-2.66.43-4,.02-.22.04-.43.04-.65.07-1.07.1-2.13.1-3.21,0-3.71-.38-7.32-1.1-10.82-.02-.16-.07-.34-.1-.51-.05-.23-.1-.46-.15-.69-.11-.5-.23-.99-.36-1.48-.12-.49-.26-.98-.4-1.46-.07-.22-.12-.43-.2-.65-.01-.07-.03-.13-.06-.19-.33-1.11-.71-2.19-1.11-3.26-.11-.29-.22-.58-.34-.86-.93-2.32-2.02-4.55-3.26-6.7-.13-.24-.27-.47-.4-.69-1.01-1.67-2.32-3.14-3.85-4.34-.53-.43-1.09-.81-1.68-1.17-.39,1.41-.59,2.89-.59,4.42,0,2.25.43,4.39,1.23,6.36,0,.03.02.06.03.09.11.35.24.69.38,1.03h0c.02.08.04.13.05.2,0,.02.02.02.02.04.01.06.03.12.05.18.35,1.36.65,2.73.89,4.13.54,3,.81,6.09.82,9.25v.12c0,2.73-.2,5.42-.59,8.04,0,0,0,.01,0,.02-.52,3.51-1.39,6.92-2.57,10.17-.73,2.02-1.57,3.98-2.51,5.88,0,0,0,0,0,.02h-.01c-1.28,2.56-4.42,7.31-4.43,7.32-.16.33-.31.66-.46,1-.06.11-.11.24-.17.36-.01.02-.02.04-.02.06-.16.33-.3.69-.44,1.05-.15.36-.3.73-.44,1.1-.24.62-.46,1.25-.67,1.89h0c-1.46,4.44-2.25,9.17-2.25,14.09,0,.41,0,.82.02,1.23.01.21.02.42.02.61.11,2.75.46,5.43,1.04,8.01h0c1.06,4.74,2.85,9.18,5.26,13.21,4.92,8.26,12.41,14.82,21.37,18.57,3.68,1.54,7.61,2.61,11.71,3.13,1.86.24,3.76.36,5.69.36.38,0,.77-.01,1.14-.02,3.41-.08,6.73-.55,9.9-1.34h0c9.6-2.43,17.98-7.91,24.02-15.37h0c2.59-3.2,4.75-6.75,6.39-10.57,2.35-5.47,3.65-11.48,3.65-17.81,0-7.77-1.96-15.08-5.42-21.47,0-.01.02-.05.02-.09-3.06-5.82-6.45-11.43-10.15-16.82-4.93-7.19-10.41-13.97-16.39-20.29-1.96-2.08-3.98-4.11-6.05-6.09,6.67-5.33,13.8-10.13,21.32-14.32,3.81-2.11,7.73-4.09,11.73-5.88,8.93-4.02,18.31-7.21,28.05-9.48,4.13-.97,8.32-1.77,12.57-2.39,7.41-1.1,14.99-1.66,22.71-1.66,16.17,0,31.76,2.48,46.41,7.09-.24,2.91-.58,5.8-.99,8.65-6.41,44.68-31.98,83.15-68.13,106.84v-112.28c-4.26.66-8.45,1.51-12.57,2.53v131.89c4.3-2.04,8.49-4.26,12.57-6.65,42.22-24.7,72.64-67.39,80.72-117.56.48-2.9.87-5.83,1.18-8.78.47-4.35.77-8.74.89-13.18.05-1.61.08-3.23.08-4.85,0-1.9-.04-3.8-.1-5.68-3.65,2.83-8.17,4.61-13.08,4.88-.43.04-.88.04-1.32.04-2.03,0-4.01-.26-5.9-.74-12.74-3.11-26.05-4.76-39.76-4.76ZM441.32,208.42c-10.7,2.3-21.03,5.62-30.86,9.86-3.93,1.7-7.79,3.53-11.55,5.52-9.18,4.83-17.85,10.5-25.92,16.88-.78.61-1.55,1.23-2.32,1.86-1.86-1.54-3.74-3.02-5.67-4.46h-.01c-4.26-3.21-8.68-6.21-13.26-8.99-.78-.48-1.56-.95-2.35-1.42-2.28-1.35-4.6-2.64-6.94-3.87-3.77-1.99-7.63-3.82-11.56-5.52-9.83-4.24-20.16-7.57-30.86-9.86v-93.08c24.05,8.42,45.39,22.63,62.34,40.95,2.9,3.13,5.68,6.39,8.3,9.76,2.63-3.36,5.4-6.62,8.3-9.75,16.96-18.32,38.29-32.54,62.35-40.96v93.08Z"/>
  </g>
  <g>
    <path class="cls-1" d="M1.25,562.55v-70.44h8.02l25.64,49.95c.69-1.62,3.69-8.54,8.98-20.77,5.3-12.23,9.2-21.59,11.71-28.09l.4-1.09h8.91v69.94h-10.74v-54.05l-23.31,54.35h-4.75l3.22-7.43-23.41-45.39v53.01H1.25Z"/>
    <path class="cls-1" d="M90.93,492.21h10.05v42.67c0,2.74.37,5.35,1.11,7.85s1.82,4.76,3.24,6.81c1.42,2.05,3.31,3.68,5.67,4.9,2.36,1.22,5.02,1.83,7.99,1.83s5.51-.54,7.92-1.63c3.89-1.75,6.81-4.39,8.76-7.92,1.95-3.53,2.92-7.47,2.92-11.83v-42.67h4.75v42.67c0,4.06-.64,7.9-1.93,11.53-1.91,4.88-5.02,8.84-9.31,11.88-4.29,3.04-9.29,4.55-15,4.55-3.8,0-7.49-.78-11.09-2.33-3.5-1.55-6.41-3.73-8.74-6.53-2.33-2.8-3.97-5.77-4.93-8.89-.96-3.12-1.44-6.43-1.44-9.92v-42.97Z"/>
    <path class="cls-1" d="M168.5,562.45v-70.34h6.48l37.22,51.48v-51.48h4.65v70.44h-3.96l-39.75-55.64v55.54h-4.65Z"/>
    <path class="cls-1" d="M242.85,562.55v-70.44h10.25v70.44h-10.25Z"/>
    <path class="cls-1" d="M276.64,544.83l7.18-3.07.64,1.73c1.52,4.13,4.15,7.45,7.9,9.97,3.74,2.52,8.01,3.79,12.8,3.79s8.83-1.29,11.93-3.86c3.1-2.57,4.65-5.94,4.65-10.1,0-2.9-1.85-5.41-5.54-7.52-1.95-1.22-4.01-2.23-6.19-3.02-3.63-1.39-6.07-2.38-7.33-2.97-2.01-.76-3.7-1.42-5.05-1.98-1.35-.56-2.94-1.3-4.75-2.2-1.82-.91-3.32-1.84-4.53-2.8-1.21-.96-2.37-2.05-3.49-3.29-1.12-1.24-1.96-2.63-2.52-4.18-.56-1.55-.84-3.22-.84-5,0-3.63,1.01-6.87,3.02-9.73,2.01-2.85,4.69-5.02,8.02-6.51,3.33-1.48,7-2.23,10.99-2.23,4.92,0,9.31,1.15,13.19,3.44,3.88,2.29,6.57,5.45,8.09,9.48l.5,1.29-6.98,3.66-.84-1.73c-1.52-3.3-3.77-5.98-6.76-8.04-2.99-2.06-6.34-3.09-10.07-3.09-3.37,0-6.2.86-8.49,2.57-2.29,1.72-3.44,3.96-3.44,6.73,0,1.45.35,2.81,1.06,4.06.71,1.25,1.44,2.28,2.18,3.07.74.79,2.14,1.7,4.18,2.72,2.05,1.02,3.57,1.74,4.58,2.15,1.01.41,2.95,1.16,5.82,2.25.5.2.87.35,1.14.45,5.87,2.21,10.03,4.04,12.47,5.49,5.81,3.53,8.71,8.02,8.71,13.46,0,6.57-2.42,11.93-7.25,16.09-4.83,4.16-10.96,6.24-18.39,6.24-6.04,0-11.45-1.43-16.24-4.31-4.79-2.87-8.07-6.81-9.85-11.83l-.5-1.19Z"/>
    <path class="cls-1" d="M380.91,492.21h10.05v42.67c0,2.74.37,5.35,1.11,7.85.74,2.49,1.82,4.76,3.24,6.81,1.42,2.05,3.31,3.68,5.67,4.9,2.36,1.22,5.02,1.83,7.99,1.83s5.51-.54,7.92-1.63c3.89-1.75,6.81-4.39,8.76-7.92,1.95-3.53,2.92-7.47,2.92-11.83v-42.67h4.75v42.67c0,4.06-.64,7.9-1.93,11.53-1.91,4.88-5.02,8.84-9.31,11.88-4.29,3.04-9.29,4.55-15,4.55-3.8,0-7.49-.78-11.09-2.33-3.5-1.55-6.41-3.73-8.74-6.53s-3.97-5.77-4.93-8.89c-.96-3.12-1.44-6.43-1.44-9.92v-42.97Z"/>
    <path class="cls-1" d="M454.15,544.83l7.18-3.07.64,1.73c1.52,4.13,4.15,7.45,7.9,9.97,3.75,2.52,8.01,3.79,12.8,3.79s8.83-1.29,11.93-3.86c3.1-2.57,4.65-5.94,4.65-10.1,0-2.9-1.85-5.41-5.54-7.52-1.95-1.22-4.01-2.23-6.19-3.02-3.63-1.39-6.07-2.38-7.33-2.97-2.01-.76-3.7-1.42-5.05-1.98-1.35-.56-2.94-1.3-4.75-2.2-1.82-.91-3.33-1.84-4.53-2.8-1.2-.96-2.37-2.05-3.49-3.29-1.12-1.24-1.96-2.63-2.52-4.18-.56-1.55-.84-3.22-.84-5,0-3.63,1.01-6.87,3.02-9.73,2.01-2.85,4.69-5.02,8.02-6.51,3.33-1.48,7-2.23,10.99-2.23,4.92,0,9.31,1.15,13.19,3.44,3.88,2.29,6.57,5.45,8.09,9.48l.5,1.29-6.98,3.66-.84-1.73c-1.52-3.3-3.77-5.98-6.76-8.04-2.99-2.06-6.34-3.09-10.07-3.09-3.37,0-6.2.86-8.49,2.57-2.29,1.72-3.44,3.96-3.44,6.73,0,1.45.35,2.81,1.06,4.06.71,1.25,1.44,2.28,2.18,3.07.74.79,2.14,1.7,4.18,2.72,2.05,1.02,3.57,1.74,4.58,2.15,1.01.41,2.95,1.16,5.82,2.25.5.2.87.35,1.14.45,5.87,2.21,10.03,4.04,12.47,5.49,5.81,3.53,8.71,8.02,8.71,13.46,0,6.57-2.42,11.93-7.25,16.09-4.83,4.16-10.96,6.24-18.39,6.24-6.04,0-11.45-1.43-16.24-4.31-4.79-2.87-8.07-6.81-9.85-11.83l-.5-1.19Z"/>
    <path class="cls-1" d="M529.1,562.55v-70.44h8.02l25.64,49.95c.69-1.62,3.69-8.54,8.98-20.77,5.3-12.23,9.2-21.59,11.71-28.09l.4-1.09h8.91v69.94h-10.74v-54.05l-23.31,54.35h-4.75l3.22-7.43-23.41-45.39v53.01h-4.65Z"/>
    <path class="cls-1" d="M619.41,562.55h-4.85l26.58-74.4,1.68,4.65c8.81,23.89,17.03,46.4,24.65,67.52l.79,2.03h-10.94l-.4-1.04c-.3-.79-.78-2.1-1.44-3.91-.56-1.75-.99-2.87-1.29-3.37-.03-.16-.28-.48-.74-.94-.13-.1-.27-.2-.42-.3-.15-.1-.33-.21-.54-.35-.21-.13-.39-.25-.52-.35-1.62-1.25-4.03-2.64-7.23-4.16-3.93-1.78-6.42-2.97-7.47-3.56-4.09-2.28-6.86-5.08-8.32-8.41l-9.55,26.58ZM651.04,545.23l-12.97-34.9c-.23.76-.66,1.99-1.29,3.69-.63,1.7-1.07,2.94-1.34,3.74-1.78,4.88-2.69,7.38-2.72,7.47l-.84,2.43c-.07.1-.12.22-.17.37-.05.15-.09.24-.12.27.03,2.94.65,5.34,1.86,7.2,1.2,1.86,2.95,3.44,5.22,4.73,1.75,1.02,4.22,2.11,7.43,3.27.63.2,1.53.51,2.7.94,1.17.43,1.92.69,2.25.79Z"/>
    <path class="cls-1" d="M689.39,562.45v-70.34h6.48l37.22,51.48v-51.48h4.65v70.44h-3.96l-39.75-55.64v55.54h-4.65Z"/>
  </g>
</svg>